<svg width="728" height="189" viewBox="0 0 728 189" fill="none" xmlns="http://www.w3.org/2000/svg">
<path opacity="0.4" d="M63.1335 73.8794C64.6752 73.1693 66.0702 72.1853 67.229 70.9904C69.0488 71.6045 71.0263 71.8527 73.0375 71.7194C75.0487 71.5861 77.0503 71.0741 78.9169 70.2156C80.7835 69.3571 82.4748 68.1705 83.8849 66.7302C85.295 65.2899 86.3935 63.627 87.1115 61.8455C88.7515 61.7455 90.3856 61.3356 91.9108 60.6415C93.4359 59.9475 94.8192 58.9845 95.9733 57.8131C97.1274 56.6417 98.0274 55.2873 98.6165 53.8353C99.2057 52.3834 99.4712 50.8652 99.3964 49.3766C99.3216 47.888 98.9081 46.4611 98.1819 45.1859C97.4558 43.9108 96.4327 42.8149 95.1771 41.9674C93.9216 41.1199 92.4608 40.5391 90.8868 40.2617C89.3128 39.9842 87.6597 40.0161 86.0317 40.3554L76.5791 27.1688L73.1953 19.8117C73.1047 19.6149 72.9286 19.4673 72.7056 19.4013C72.4826 19.3353 72.2309 19.3563 72.006 19.4598L44.8712 31.9402C44.6463 32.0437 44.4666 32.2211 44.3715 32.4333C44.2765 32.6456 44.274 32.8754 44.3645 33.0722L47.7483 40.4294L51.6088 56.1879C49.2907 57.975 47.6793 60.413 47.0761 63.046C46.4729 65.679 46.919 68.3269 48.3311 70.4946C49.7432 72.6623 52.0246 74.2015 54.7489 74.8245C57.4731 75.4474 60.4537 75.1115 63.1335 73.8794ZM46.4016 33.0341L71.8406 21.3337L74.5706 27.2693L49.1317 38.9697L46.4016 33.0341ZM53.1362 57.1054C53.2899 56.9983 53.4092 56.8542 53.4786 56.692C53.5479 56.5297 53.564 56.357 53.5247 56.1963L49.6829 40.514L54.8392 38.1424L58.4682 48.095L58.4691 48.0946C58.4757 48.1128 58.4821 48.131 58.4903 48.1488C58.5807 48.338 58.7511 48.4805 58.966 48.5467C59.1808 48.613 59.4238 48.5979 59.6446 48.5046C59.8653 48.4112 60.0469 48.2469 60.1517 48.0455C60.2565 47.8441 60.2764 47.6212 60.2074 47.4229L60.2083 47.4225L56.5395 37.3604L61.6857 34.9934L65.4395 43.1548C65.53 43.3516 65.7061 43.4992 65.9292 43.5652C66.1522 43.6312 66.4038 43.6102 66.6287 43.5068C66.8536 43.4033 67.0333 43.226 67.1284 43.0137C67.2234 42.8014 67.2259 42.5716 67.1354 42.3748L63.3816 34.2134L68.5278 31.8464L73.7802 41.1804L73.7811 41.18C73.8867 41.3615 74.069 41.4914 74.29 41.5429C74.5111 41.5944 74.7541 41.5635 74.9686 41.4566C75.1831 41.3497 75.3527 41.175 75.4423 40.9687C75.5318 40.7624 75.5344 40.5404 75.4496 40.3486C75.4414 40.3308 75.4318 40.3141 75.4223 40.2972L75.4231 40.2968L70.2281 31.0644L75.3845 28.6927L84.7912 41.8152C84.8876 41.9496 85.0292 42.0498 85.1975 42.1027C85.3658 42.1556 85.5529 42.1588 85.7342 42.1118C87.6055 41.6286 89.5347 41.6305 91.2978 42.1173C93.061 42.6041 94.5858 43.5558 95.6954 44.862C96.8049 46.1683 97.4537 47.7754 97.5664 49.497C97.6791 51.2186 97.2511 52.984 96.3321 54.5883C95.4131 56.1926 94.0407 57.5701 92.3743 58.5608C90.7079 59.5516 88.8157 60.1151 86.9174 60.1858C85.0191 60.2565 83.1925 59.8316 81.6495 58.9604C80.1066 58.0891 78.9106 56.8073 78.2003 55.2637C78.1098 55.0669 77.9337 54.9193 77.7107 54.8533C77.4876 54.7873 77.236 54.8083 77.0111 54.9118C76.7862 55.0152 76.6065 55.1926 76.5115 55.4049C76.4164 55.6171 76.4139 55.847 76.5044 56.0437C77.2434 57.6485 78.4284 59.0172 79.9521 60.0256C81.4757 61.0341 83.2899 61.6506 85.2301 61.8191C84.3545 63.78 82.9538 65.5472 81.1679 66.9444C79.3819 68.3415 77.2731 69.3197 75.0521 69.7813C72.831 70.2429 70.5753 70.1718 68.5102 69.5749C66.4451 68.9781 64.6428 67.8766 63.2832 66.3802C63.211 66.2981 63.1203 66.2318 63.0162 66.185C62.9121 66.1382 62.7968 66.1118 62.6769 66.1075C62.557 66.1031 62.4349 66.1209 62.3178 66.1597C62.2006 66.1985 62.0907 66.2576 61.9945 66.3336C61.8982 66.4095 61.8175 66.5008 61.757 66.6022C61.6966 66.7035 61.6576 66.8128 61.6423 66.9239C61.627 67.0349 61.6357 67.1453 61.6679 67.2488C61.7002 67.3523 61.7553 67.4468 61.8301 67.5267C62.8624 68.664 64.1244 69.6047 65.5585 70.3057C64.6544 71.1612 63.6006 71.8699 62.451 72.3955C60.1408 73.4579 57.5679 73.7325 55.2304 73.1661C52.8929 72.5998 50.9571 71.2327 49.7978 69.3297C48.6385 67.4267 48.3381 65.123 48.9548 62.8648C49.5716 60.6065 51.0615 58.5543 53.1362 57.1054Z" fill="black"/>
<path opacity="0.4" d="M214.148 79.9411C212.474 80.2219 210.87 80.8055 209.438 81.6545C207.843 80.5845 206 79.8262 204.025 79.4272C202.049 79.0283 199.983 78.9972 197.957 79.336C195.93 79.6747 193.987 80.3761 192.248 81.396C190.51 82.4159 189.013 83.7324 187.853 85.2631C186.244 84.9294 184.56 84.8963 182.906 85.1659C181.252 85.4355 179.665 86.0019 178.244 86.8295C176.823 87.6571 175.599 88.7279 174.65 89.9745C173.7 91.2211 173.046 92.6164 172.727 94.0725C172.409 95.5286 172.434 97.014 172.8 98.435C173.166 99.856 173.866 101.182 174.855 102.329C175.844 103.476 177.102 104.42 178.548 105.101C179.994 105.781 181.597 106.184 183.257 106.284L188.92 121.488L190.255 129.476C190.291 129.689 190.422 129.878 190.62 130C190.818 130.122 191.066 130.168 191.31 130.127L220.769 125.202C221.013 125.161 221.233 125.037 221.38 124.858C221.528 124.678 221.59 124.457 221.555 124.243L220.219 116.256L220.628 100.036C223.334 98.92 225.528 96.9902 226.801 94.6076C228.074 92.2251 228.338 89.5529 227.544 87.0906C226.75 84.6284 224.953 82.5446 222.487 81.2288C220.022 79.9129 217.057 79.4552 214.148 79.9411ZM219.579 123.745L191.961 128.362L190.884 121.918L218.502 117.301L219.579 123.745ZM219.395 98.7503C219.219 98.8133 219.066 98.9211 218.956 99.0594C218.847 99.1978 218.786 99.3603 218.782 99.5256L218.375 115.667L212.777 116.602L211.886 106.046L211.885 106.046C211.883 106.027 211.882 106.008 211.879 105.989C211.841 105.782 211.714 105.6 211.524 105.48C211.334 105.36 211.096 105.31 210.858 105.342C210.621 105.375 210.402 105.486 210.248 105.652C210.094 105.819 210.017 106.029 210.031 106.239L210.03 106.239L210.931 116.911L205.344 117.845L203.863 108.985C203.827 108.771 203.696 108.582 203.498 108.46C203.3 108.338 203.052 108.292 202.808 108.333C202.563 108.374 202.343 108.498 202.196 108.678C202.049 108.858 201.986 109.079 202.022 109.292L203.503 118.153L197.916 119.087L195.296 108.702L195.295 108.702C195.241 108.499 195.099 108.326 194.899 108.218C194.7 108.111 194.457 108.077 194.222 108.124C193.987 108.17 193.777 108.294 193.637 108.47C193.496 108.646 193.436 108.859 193.467 109.067C193.47 109.086 193.475 109.105 193.48 109.123L193.479 109.123L196.07 119.395L190.472 120.331L184.838 105.201C184.78 105.046 184.669 104.912 184.521 104.817C184.372 104.721 184.193 104.669 184.005 104.667C182.073 104.642 180.212 104.134 178.638 103.202C177.064 102.27 175.843 100.951 175.115 99.3999C174.387 97.8483 174.182 96.1272 174.525 94.4364C174.868 92.7456 175.744 91.1543 177.052 89.8472C178.359 88.5402 180.045 87.571 181.913 87.0521C183.781 86.5332 185.755 86.4859 187.605 86.9157C189.455 87.3454 191.107 88.2346 192.367 89.4801C193.627 90.7256 194.445 92.2763 194.726 93.9522C194.761 94.1658 194.893 94.3545 195.09 94.4767C195.288 94.5989 195.537 94.6446 195.781 94.6038C196.025 94.5629 196.245 94.4389 196.392 94.259C196.54 94.0791 196.602 93.858 196.567 93.6444C196.275 91.902 195.49 90.2703 194.284 88.8975C193.079 87.5246 191.49 86.4538 189.662 85.7822C191.021 84.1197 192.836 82.7818 194.926 81.9021C197.016 81.0224 199.308 80.6317 201.572 80.7689C203.836 80.9062 205.994 81.5666 207.831 82.6843C209.667 83.8019 211.117 85.3378 212.037 87.1384C212.085 87.2365 212.155 87.3243 212.243 87.3968C212.331 87.4693 212.435 87.525 212.55 87.5606C212.665 87.5962 212.787 87.6111 212.91 87.6044C213.034 87.5977 213.155 87.5695 213.268 87.5214C213.381 87.4734 213.483 87.4065 213.567 87.3246C213.652 87.2426 213.719 87.1474 213.763 87.0443C213.807 86.9411 213.827 86.8323 213.823 86.7239C213.819 86.6156 213.791 86.51 213.74 86.4132C213.042 85.045 212.071 83.8062 210.871 82.7534C211.968 82.1651 213.17 81.7577 214.418 81.5521C216.926 81.133 219.48 81.543 221.587 82.7027C223.695 83.8624 225.204 85.6894 225.823 87.8299C226.443 89.9704 226.128 92.2722 224.941 94.2896C223.753 96.307 221.777 97.8965 219.395 98.7503Z" fill="black"/>
<path opacity="0.4" d="M549.811 31.5365C550.332 33.0192 551.155 34.3773 552.228 35.5237C551.346 37.2034 550.819 39.0489 550.681 40.9446C550.542 42.8403 550.796 44.7454 551.425 46.5404C552.054 48.3354 553.046 49.9817 554.338 51.3761C555.629 52.7705 557.193 53.883 558.931 54.6439C558.81 56.1893 559.008 57.7442 559.515 59.2105C560.021 60.6768 560.825 62.0229 561.874 63.1638C562.924 64.3047 564.197 65.2158 565.613 65.8396C567.029 66.4635 568.558 66.7865 570.103 66.7885C571.648 66.7904 573.176 66.4712 574.59 65.8509C576.004 65.2307 577.274 64.3228 578.32 63.1845C579.366 62.0462 580.165 60.7022 580.667 59.2371C581.169 57.772 581.362 56.2177 581.236 54.672L596.127 46.4323L604.176 43.6105C604.391 43.535 604.567 43.3767 604.666 43.1704C604.765 42.9641 604.777 42.7267 604.702 42.5104L595.554 16.416C595.478 16.1998 595.32 16.0223 595.114 15.9228C594.908 15.8232 594.671 15.8097 594.456 15.8852L586.407 18.707L569.631 21.569C568.106 19.3047 565.813 17.6729 563.181 16.9785C560.549 16.2842 557.758 16.5748 555.33 17.7961C552.901 19.0175 551.002 21.0859 549.986 23.6147C548.97 26.1435 548.908 28.9596 549.811 31.5365ZM594.216 17.8006L602.792 42.2641L596.299 44.5407L587.722 20.0772L594.216 17.8006ZM568.475 22.9592C568.565 23.1088 568.697 23.2279 568.855 23.3009C569.013 23.3739 569.188 23.3973 569.359 23.3683L586.055 20.52L587.793 25.4787L577.034 28.4049L577.035 28.4057C577.015 28.411 576.995 28.4161 576.976 28.423C576.768 28.4987 576.598 28.6518 576.5 28.8505C576.403 29.0491 576.385 29.2781 576.451 29.49C576.517 29.7019 576.661 29.8804 576.855 29.9886C577.048 30.0968 577.275 30.1264 577.489 30.0711L577.489 30.072L588.366 27.1138L590.101 32.0626L581.172 35.1929C580.957 35.2684 580.78 35.4267 580.682 35.633C580.583 35.8393 580.57 36.0767 580.646 36.2929C580.722 36.5092 580.88 36.6866 581.086 36.7862C581.292 36.8857 581.529 36.8993 581.744 36.8238L590.673 33.6935L592.408 38.6424L582.064 43.1235L582.065 43.1243C581.863 43.2148 581.704 43.3797 581.621 43.5848C581.537 43.79 581.536 44.0197 581.617 44.2264C581.698 44.4331 581.854 44.6009 582.055 44.695C582.255 44.7891 582.484 44.8024 582.693 44.732C582.713 44.7252 582.731 44.717 582.75 44.7088L582.75 44.7096L592.981 40.2775L594.719 45.2361L579.901 53.4358C579.749 53.5199 579.626 53.6481 579.549 53.8036C579.471 53.9591 579.442 54.1347 579.466 54.3073C579.707 56.0885 579.441 57.9006 578.697 59.5332C577.954 61.1658 576.764 62.552 575.265 63.5309C573.766 64.5098 572.02 65.0413 570.23 65.0636C568.439 65.086 566.678 64.5983 565.15 63.6573C563.622 62.7162 562.39 61.3602 561.597 59.7468C560.803 58.1334 560.482 56.3287 560.669 54.5421C560.857 52.7555 561.545 51.0603 562.655 49.6532C563.764 48.2461 565.25 47.1848 566.939 46.5925C567.154 46.517 567.33 46.3587 567.429 46.1524C567.528 45.9461 567.54 45.7087 567.465 45.4924C567.389 45.2762 567.231 45.0987 567.025 44.9992C566.819 44.8996 566.582 44.8861 566.367 44.9616C564.611 45.5779 563.038 46.6246 561.789 48.007C560.54 49.3893 559.656 51.0636 559.217 52.8779C557.315 51.9603 555.685 50.5589 554.489 48.8135C553.294 47.0681 552.574 45.0398 552.403 42.931C552.231 40.8223 552.614 38.7069 553.512 36.796C554.41 34.885 555.793 33.2455 557.522 32.0409C557.617 31.9771 557.698 31.8951 557.76 31.7996C557.823 31.7041 557.866 31.597 557.887 31.4846C557.907 31.3722 557.906 31.2567 557.882 31.1447C557.858 31.0328 557.812 30.9267 557.747 30.8326C557.682 30.7385 557.599 30.6583 557.503 30.5965C557.406 30.5348 557.299 30.4929 557.187 30.4731C557.074 30.4534 556.959 30.4562 556.848 30.4815C556.737 30.5067 556.632 30.5539 556.539 30.6203C555.225 31.5349 554.083 32.6747 553.163 33.9878C552.405 33.0971 551.819 32.0728 551.435 30.9674C550.656 28.7458 550.725 26.3156 551.63 24.1474C552.534 21.9792 554.209 20.2271 556.33 19.2304C558.451 18.2337 560.867 18.0633 563.111 18.7521C565.354 19.441 567.266 20.9401 568.475 22.9592Z" fill="black"/>
<path opacity="0.4" d="M610.82 92.7099C611.662 92.3059 612.409 91.728 613.014 91.0135C614.07 91.4391 615.2 91.641 616.332 91.6067C617.465 91.5725 618.576 91.3026 619.595 90.8142C620.615 90.3258 621.521 89.6292 622.258 88.7682C622.994 87.9072 623.545 86.9004 623.875 85.8107C624.799 85.7881 625.706 85.5728 626.539 85.1783C627.373 84.7839 628.114 84.2188 628.718 83.5187C629.321 82.8187 629.772 81.9988 630.043 81.1107C630.315 80.2226 630.4 79.2856 630.294 78.3587C630.188 77.4319 629.893 76.5352 629.428 75.7252C628.962 74.9152 628.337 74.2095 627.59 73.6526C626.843 73.0956 625.992 72.6994 625.089 72.489C624.187 72.2786 623.252 72.2585 622.346 72.43L616.433 64.0073L614.204 59.3536C614.144 59.2292 614.038 59.1332 613.909 59.0868C613.78 59.0404 613.639 59.0474 613.516 59.1062L598.693 66.2068C598.57 66.2657 598.476 66.3715 598.432 66.5012C598.387 66.6308 598.395 66.7735 598.455 66.898L600.684 71.5517L603.542 81.4377C602.307 82.4923 601.499 83.9683 601.27 85.59C601.041 87.2117 601.407 88.8679 602.299 90.2491C603.19 91.6303 604.547 92.6419 606.115 93.0948C607.684 93.5476 609.356 93.4108 610.82 92.7099ZM599.606 66.9235L613.502 60.2667L615.301 64.0212L601.405 70.678L599.606 66.9235ZM604.446 82.0447C604.528 81.9818 604.589 81.8952 604.622 81.796C604.654 81.6969 604.656 81.5899 604.627 81.4891L601.783 71.651L604.599 70.3017L607.078 76.5741L607.079 76.5739C607.083 76.5854 607.087 76.5968 607.093 76.6081C607.152 76.7278 607.255 76.8205 607.379 76.8669C607.503 76.9132 607.64 76.9097 607.761 76.857C607.882 76.8044 607.978 76.7066 608.029 76.584C608.079 76.4614 608.081 76.3234 608.034 76.1985L608.034 76.1982L605.528 69.8567L608.339 68.5101L610.812 73.6725C610.872 73.7969 610.978 73.8929 611.107 73.9393C611.236 73.9857 611.377 73.9787 611.5 73.9199C611.623 73.861 611.717 73.7552 611.762 73.6255C611.806 73.4959 611.798 73.3532 611.738 73.2287L609.265 68.0663L612.077 66.7197L615.448 72.6469L615.448 72.6467C615.516 72.762 615.624 72.8471 615.752 72.8845C615.879 72.9218 616.015 72.9085 616.132 72.8472C616.249 72.786 616.337 72.6815 616.379 72.5555C616.421 72.4294 616.413 72.2915 616.357 72.1703C616.352 72.159 616.345 72.1484 616.339 72.1377L616.34 72.1375L613.005 66.2747L615.822 64.9254L621.706 73.3072C621.766 73.393 621.851 73.4587 621.948 73.4957C622.046 73.5327 622.152 73.5392 622.252 73.5143C623.291 73.2592 624.382 73.307 625.401 73.6521C626.42 73.9971 627.323 74.6254 628.007 75.4639C628.691 76.3024 629.126 77.3168 629.264 78.3894C629.401 79.4619 629.234 80.5486 628.783 81.5234C628.331 82.4982 627.613 83.3211 626.713 83.8965C625.812 84.472 624.765 84.7764 623.694 84.7746C622.623 84.7727 621.571 84.4645 620.661 83.8859C619.75 83.3072 619.019 82.4818 618.551 81.5054C618.491 81.3809 618.385 81.2849 618.256 81.2385C618.127 81.1921 617.986 81.1991 617.863 81.258C617.74 81.3168 617.646 81.4227 617.601 81.5523C617.556 81.6819 617.565 81.8247 617.624 81.9492C618.111 82.9642 618.84 83.8434 619.746 84.5069C620.651 85.1704 621.704 85.5972 622.809 85.7488C622.397 86.9462 621.68 88.0106 620.729 88.8357C619.778 89.6608 618.627 90.2178 617.39 90.451C616.152 90.6842 614.873 90.5855 613.679 90.1648C612.484 89.7441 611.417 89.016 610.584 88.0533C610.54 88.0006 610.486 87.9571 610.425 87.9255C610.364 87.8939 610.297 87.8748 610.229 87.8692C610.161 87.8636 610.093 87.8717 610.028 87.893C609.964 87.9143 609.904 87.9483 609.853 87.9932C609.802 88.0381 609.76 88.0929 609.73 88.1544C609.7 88.2159 609.683 88.2829 609.679 88.3515C609.675 88.4201 609.685 88.489 609.707 88.5541C609.73 88.6192 609.765 88.6792 609.811 88.7307C610.444 89.4624 611.198 90.0774 612.039 90.5477C611.564 91.0574 610.998 91.4724 610.37 91.7713C609.108 92.3757 607.664 92.4842 606.317 92.0758C604.97 91.6674 603.816 90.7712 603.079 89.5606C602.341 88.35 602.073 86.9112 602.325 85.5228C602.578 84.1343 603.333 82.895 604.446 82.0447Z" fill="black"/>
<path opacity="0.4" d="M314.572 150.042C315.506 150.065 316.434 149.89 317.297 149.528C318.045 150.387 318.959 151.081 319.983 151.565C321.007 152.049 322.12 152.314 323.25 152.342C324.38 152.371 325.504 152.162 326.551 151.73C327.599 151.298 328.547 150.652 329.336 149.831C330.169 150.231 331.075 150.452 331.997 150.479C332.919 150.507 333.836 150.34 334.691 149.991C335.547 149.642 336.322 149.116 336.967 148.449C337.612 147.781 338.114 146.985 338.441 146.112C338.768 145.238 338.913 144.305 338.867 143.372C338.821 142.439 338.584 141.526 338.172 140.691C337.76 139.855 337.182 139.115 336.473 138.517C335.765 137.92 334.942 137.477 334.057 137.218L332.619 127.028L332.749 121.869C332.752 121.731 332.701 121.598 332.608 121.498C332.514 121.398 332.385 121.34 332.248 121.336L315.818 120.923C315.682 120.919 315.55 120.971 315.451 121.066C315.353 121.161 315.295 121.292 315.292 121.43L315.162 126.588L313.214 136.693C311.634 137.071 310.243 138.018 309.302 139.359C308.361 140.699 307.934 142.341 308.1 143.976C308.267 145.612 309.015 147.13 310.206 148.246C311.397 149.362 312.949 150.001 314.572 150.042V150.042ZM316.305 121.976L331.709 122.364L331.604 126.525L316.201 126.138L316.305 121.976ZM313.742 137.645C313.844 137.626 313.938 137.577 314.012 137.503C314.086 137.43 314.136 137.335 314.156 137.232L316.095 127.176L319.217 127.255L318.574 133.969L318.574 133.969C318.573 133.981 318.572 133.993 318.572 134.006C318.57 134.139 318.619 134.268 318.709 134.366C318.799 134.464 318.922 134.523 319.054 134.531C319.185 134.539 319.315 134.496 319.416 134.409C319.517 134.323 319.581 134.201 319.596 134.068L319.596 134.068L320.247 127.281L323.363 127.359L323.219 133.081C323.215 133.219 323.266 133.353 323.36 133.453C323.454 133.553 323.583 133.611 323.719 133.615C323.855 133.618 323.987 133.566 324.086 133.471C324.185 133.376 324.242 133.245 324.246 133.107L324.39 127.385L327.506 127.463L327.814 134.275L327.815 134.275C327.822 134.409 327.88 134.534 327.977 134.625C328.073 134.716 328.201 134.766 328.333 134.765C328.464 134.763 328.591 134.71 328.685 134.617C328.78 134.524 328.835 134.398 328.841 134.264C328.841 134.251 328.84 134.239 328.84 134.227L328.84 134.227L328.535 127.489L331.657 127.568L333.088 137.708C333.103 137.812 333.148 137.909 333.218 137.986C333.288 138.063 333.38 138.117 333.481 138.141C334.521 138.386 335.472 138.925 336.223 139.695C336.973 140.465 337.492 141.436 337.72 142.493C337.948 143.551 337.875 144.653 337.51 145.671C337.144 146.688 336.502 147.58 335.657 148.243C334.811 148.906 333.798 149.313 332.734 149.416C331.67 149.519 330.6 149.315 329.646 148.826C328.693 148.337 327.896 147.585 327.348 146.656C326.8 145.726 326.524 144.658 326.551 143.576C326.555 143.438 326.504 143.304 326.41 143.204C326.316 143.105 326.187 143.046 326.051 143.043C325.915 143.04 325.783 143.091 325.684 143.186C325.585 143.281 325.528 143.412 325.524 143.55C325.496 144.676 325.746 145.79 326.251 146.793C326.756 147.795 327.5 148.654 328.415 149.291C327.504 150.171 326.381 150.793 325.159 151.096C323.937 151.398 322.658 151.371 321.45 151.016C320.242 150.661 319.147 149.992 318.275 149.074C317.403 148.157 316.783 147.023 316.479 145.787C316.463 145.72 316.435 145.656 316.395 145.601C316.355 145.545 316.304 145.498 316.246 145.462C316.188 145.426 316.124 145.402 316.056 145.391C315.989 145.381 315.921 145.384 315.855 145.401C315.789 145.418 315.726 145.447 315.672 145.489C315.617 145.53 315.571 145.582 315.537 145.641C315.502 145.7 315.479 145.766 315.47 145.834C315.46 145.903 315.465 145.972 315.482 146.039C315.713 146.978 316.105 147.869 316.641 148.67C315.986 148.908 315.293 149.021 314.598 149.001C313.199 148.966 311.863 148.406 310.849 147.43C309.835 146.454 309.215 145.131 309.108 143.718C309.002 142.304 309.417 140.901 310.273 139.779C311.129 138.657 312.365 137.896 313.742 137.645V137.645Z" fill="black"/>
<path opacity="0.4" d="M252.611 97.7099C253.453 97.3059 254.201 96.728 254.806 96.0135C255.862 96.4391 256.991 96.641 258.124 96.6067C259.256 96.5725 260.367 96.3026 261.387 95.8142C262.406 95.3258 263.313 94.6292 264.049 93.7682C264.786 92.9072 265.336 91.9004 265.666 90.8107C266.59 90.7881 267.497 90.5728 268.331 90.1783C269.164 89.7839 269.906 89.2188 270.509 88.5187C271.112 87.8187 271.564 86.9988 271.835 86.1107C272.106 85.2226 272.192 84.2856 272.086 83.3587C271.98 82.4319 271.685 81.5352 271.219 80.7252C270.754 79.9152 270.128 79.2095 269.381 78.6526C268.635 78.0956 267.783 77.6994 266.881 77.489C265.978 77.2786 265.044 77.2585 264.137 77.43L258.224 69.0073L255.995 64.3536C255.936 64.2292 255.83 64.1332 255.701 64.0868C255.572 64.0404 255.43 64.0474 255.307 64.1062L240.485 71.2068C240.362 71.2657 240.268 71.3715 240.223 71.5012C240.178 71.6308 240.187 71.7735 240.246 71.898L242.476 76.5517L245.334 86.4377C244.098 87.4923 243.29 88.9683 243.062 90.59C242.833 92.2117 243.198 93.8679 244.09 95.2491C244.982 96.6303 246.339 97.6419 247.907 98.0948C249.475 98.5476 251.147 98.4108 252.611 97.7099ZM241.398 71.9235L255.294 65.2667L257.092 69.0212L243.196 75.678L241.398 71.9235ZM246.237 87.0447C246.32 86.9818 246.381 86.8952 246.413 86.796C246.446 86.6969 246.447 86.5899 246.418 86.4891L243.574 76.651L246.391 75.3017L248.87 81.5741L248.87 81.5739C248.875 81.5854 248.879 81.5968 248.884 81.6081C248.944 81.7278 249.046 81.8205 249.171 81.8669C249.295 81.9132 249.432 81.9097 249.553 81.857C249.674 81.8044 249.769 81.7066 249.82 81.584C249.871 81.4614 249.873 81.3234 249.825 81.1985L249.826 81.1982L247.319 74.8567L250.131 73.5101L252.604 78.6725C252.663 78.7969 252.769 78.8929 252.898 78.9393C253.027 78.9857 253.169 78.9787 253.292 78.9199C253.414 78.861 253.509 78.7552 253.553 78.6255C253.598 78.4959 253.59 78.3532 253.53 78.2287L251.057 73.0663L253.868 71.7197L257.239 77.6469L257.24 77.6467C257.307 77.762 257.416 77.8471 257.543 77.8845C257.671 77.9218 257.807 77.9085 257.924 77.8472C258.04 77.786 258.129 77.6815 258.171 77.5555C258.213 77.4294 258.205 77.2915 258.148 77.1703C258.143 77.159 258.137 77.1484 258.131 77.1377L258.131 77.1375L254.797 71.2747L257.614 69.9254L263.497 78.3072C263.558 78.393 263.642 78.4587 263.74 78.4957C263.837 78.5327 263.943 78.5392 264.044 78.5143C265.082 78.2592 266.174 78.307 267.193 78.6521C268.211 78.9971 269.115 79.6254 269.798 80.4639C270.482 81.3024 270.918 82.3168 271.055 83.3894C271.193 84.4619 271.026 85.5486 270.574 86.5234C270.123 87.4982 269.405 88.3211 268.504 88.8965C267.604 89.472 266.557 89.7764 265.486 89.7746C264.414 89.7727 263.363 89.4645 262.452 88.8859C261.542 88.3072 260.81 87.4818 260.342 86.5054C260.283 86.3809 260.177 86.2849 260.048 86.2385C259.919 86.1921 259.777 86.1991 259.654 86.258C259.531 86.3168 259.437 86.4227 259.393 86.5523C259.348 86.6819 259.356 86.8247 259.416 86.9492C259.903 87.9642 260.632 88.8434 261.537 89.5069C262.442 90.1704 263.495 90.5972 264.601 90.7488C264.189 91.9462 263.472 93.0106 262.521 93.8357C261.57 94.6608 260.418 95.2178 259.181 95.451C257.944 95.6842 256.664 95.5855 255.47 95.1648C254.276 94.7441 253.209 94.016 252.376 93.0533C252.331 93.0006 252.277 92.9571 252.216 92.9255C252.155 92.8939 252.089 92.8748 252.021 92.8692C251.953 92.8636 251.885 92.8717 251.82 92.893C251.755 92.9143 251.696 92.9483 251.644 92.9932C251.593 93.0381 251.551 93.0929 251.521 93.1544C251.492 93.2159 251.474 93.2829 251.47 93.3515C251.466 93.4201 251.476 93.489 251.499 93.5541C251.521 93.6192 251.557 93.6792 251.602 93.7307C252.235 94.4624 252.989 95.0774 253.831 95.5477C253.356 96.0574 252.79 96.4724 252.162 96.7713C250.9 97.3757 249.455 97.4842 248.108 97.0758C246.762 96.6674 245.608 95.7712 244.87 94.5606C244.133 93.35 243.864 91.9112 244.117 90.5228C244.37 89.1343 245.125 87.895 246.237 87.0447Z" fill="black"/>
<path opacity="0.4" d="M627.099 107.643C626.332 108.176 625.686 108.865 625.203 109.667C624.092 109.415 622.945 109.395 621.832 109.61C620.72 109.824 619.666 110.267 618.737 110.912C617.809 111.557 617.025 112.389 616.435 113.356C615.845 114.323 615.462 115.405 615.309 116.533C614.401 116.703 613.54 117.06 612.78 117.582C612.02 118.104 611.378 118.78 610.894 119.567C610.41 120.355 610.095 121.236 609.968 122.156C609.842 123.076 609.907 124.015 610.159 124.913C610.411 125.811 610.845 126.649 611.434 127.375C612.022 128.1 612.753 128.697 613.579 129.128C614.405 129.559 615.308 129.814 616.233 129.878C617.157 129.942 618.083 129.813 618.951 129.5L626.13 136.873L629.072 141.112C629.15 141.225 629.27 141.303 629.405 141.328C629.54 141.354 629.678 141.324 629.79 141.247L643.292 131.876C643.404 131.798 643.48 131.678 643.504 131.543C643.527 131.408 643.496 131.269 643.418 131.155L640.476 126.916L636.079 117.612C637.131 116.374 637.693 114.788 637.661 113.15C637.628 111.513 637.004 109.936 635.903 108.715C634.803 107.493 633.302 106.711 631.682 106.513C630.062 106.316 628.432 106.717 627.099 107.643ZM642.277 131.313L629.619 140.099L627.245 136.679L639.903 127.893L642.277 131.313ZM635.091 117.156C635.019 117.231 634.972 117.327 634.956 117.43C634.94 117.533 634.956 117.639 635 117.733L639.375 126.993L636.81 128.774L633.363 122.976L633.363 122.977C633.356 122.966 633.35 122.955 633.343 122.945C633.266 122.836 633.15 122.761 633.019 122.735C632.889 122.709 632.755 122.735 632.644 122.806C632.533 122.877 632.454 122.989 632.423 123.118C632.393 123.247 632.413 123.384 632.48 123.499L632.479 123.5L635.964 129.361L633.403 131.138L630.139 126.436C630.06 126.322 629.94 126.244 629.806 126.219C629.671 126.194 629.532 126.223 629.42 126.301C629.309 126.379 629.232 126.498 629.209 126.633C629.185 126.768 629.217 126.908 629.295 127.021L632.559 131.724L629.998 133.501L625.726 128.187L625.726 128.187C625.64 128.084 625.52 128.017 625.388 128C625.256 127.984 625.124 128.019 625.018 128.098C624.913 128.177 624.842 128.294 624.821 128.425C624.8 128.556 624.83 128.691 624.904 128.802C624.911 128.812 624.919 128.822 624.927 128.831L624.927 128.832L629.152 134.088L626.586 135.869L619.442 128.532C619.369 128.456 619.275 128.405 619.173 128.384C619.071 128.363 618.965 128.374 618.87 128.414C617.886 128.831 616.8 128.958 615.74 128.78C614.679 128.601 613.687 128.125 612.878 127.406C612.07 126.687 611.478 125.755 611.172 124.718C610.865 123.681 610.857 122.582 611.147 121.548C611.438 120.513 612.015 119.587 612.813 118.875C613.61 118.163 614.595 117.696 615.653 117.527C616.711 117.359 617.798 117.495 618.789 117.922C619.78 118.348 620.634 119.046 621.251 119.936C621.33 120.049 621.45 120.127 621.585 120.152C621.72 120.177 621.858 120.148 621.97 120.07C622.082 119.993 622.158 119.873 622.181 119.738C622.205 119.603 622.174 119.463 622.095 119.35C621.453 118.425 620.593 117.673 619.594 117.163C618.594 116.652 617.487 116.398 616.372 116.425C616.587 115.177 617.126 114.012 617.933 113.046C618.74 112.08 619.789 111.346 620.973 110.919C622.157 110.492 623.436 110.385 624.682 110.611C625.928 110.836 627.097 111.384 628.073 112.202C628.125 112.247 628.186 112.281 628.251 112.303C628.316 112.324 628.385 112.333 628.453 112.327C628.521 112.322 628.587 112.303 628.647 112.272C628.708 112.241 628.761 112.197 628.805 112.145C628.848 112.093 628.881 112.032 628.9 111.966C628.92 111.901 628.927 111.832 628.92 111.764C628.913 111.695 628.892 111.629 628.859 111.568C628.827 111.507 628.782 111.454 628.729 111.41C627.988 110.789 627.145 110.302 626.239 109.971C626.627 109.393 627.12 108.893 627.692 108.498C628.842 107.7 630.25 107.363 631.645 107.551C633.04 107.74 634.322 108.441 635.243 109.519C636.163 110.596 636.658 111.974 636.63 113.385C636.601 114.796 636.053 116.14 635.091 117.156Z" fill="black"/>
<path opacity="0.4" d="M215.8 10.4258C214.822 11.5902 214.092 12.9416 213.659 14.3937C211.842 14.5009 210.059 14.9831 208.422 15.8101C206.784 16.6371 205.328 17.791 204.143 19.1996C202.958 20.6083 202.071 22.2412 201.537 23.9961C201.003 25.751 200.834 27.5901 201.039 29.3981C199.7 30.0649 198.507 30.9999 197.536 32.1444C196.565 33.2889 195.836 34.6179 195.395 36.0477C194.955 37.4776 194.812 38.9773 194.977 40.4523C195.141 41.9273 195.609 43.3457 196.35 44.6181C197.092 45.8905 198.092 46.9893 199.286 47.8453C200.48 48.7013 201.844 49.2959 203.29 49.5917C204.737 49.8875 206.235 49.878 207.69 49.5639C209.146 49.2498 210.527 48.6379 211.747 47.7666L225.739 55.9317L231.95 61.1551C232.116 61.2948 232.332 61.3613 232.55 61.3401C232.768 61.3189 232.971 61.2116 233.114 61.0419L250.336 40.5645C250.479 40.3948 250.55 40.1765 250.533 39.9577C250.517 39.7389 250.414 39.5375 250.248 39.3978L244.037 34.1744L233.595 21.7893C234.737 19.4109 234.986 16.7145 234.296 14.204C233.605 11.6936 232.021 9.54094 229.841 8.14858C227.66 6.75622 225.032 6.21942 222.448 6.63853C219.864 7.05764 217.501 8.40397 215.8 10.4258ZM248.545 40.1509L232.4 59.3485L227.389 55.1344L243.535 35.9368L248.545 40.1509ZM231.887 21.5285C231.806 21.6763 231.771 21.8442 231.786 22.0102C231.801 22.1762 231.867 22.3327 231.973 22.4589L242.365 34.7842L239.093 38.6754L231.492 31.2741L231.491 31.2748C231.477 31.2612 231.464 31.2476 231.449 31.235C231.286 31.1019 231.077 31.0377 230.866 31.0559C230.654 31.074 230.456 31.1731 230.312 31.3325C230.168 31.4919 230.09 31.6995 230.093 31.9122C230.096 32.1249 230.181 32.3264 230.33 32.4751L230.329 32.4757L238.013 39.9585L234.747 43.8421L227.858 38.0477C227.691 37.908 227.475 37.8415 227.257 37.8627C227.039 37.8839 226.836 37.9912 226.693 38.1609C226.55 38.3306 226.479 38.5489 226.496 38.7677C226.512 38.9865 226.615 39.1879 226.781 39.3276L233.671 45.122L230.405 49.0056L221.715 42.7176L221.715 42.7183C221.543 42.5973 221.33 42.5483 221.12 42.5815C220.909 42.6147 220.718 42.7275 220.586 42.8966C220.454 43.0657 220.39 43.278 220.408 43.4896C220.427 43.7013 220.526 43.8959 220.685 44.0333C220.7 44.046 220.716 44.0571 220.731 44.0685L220.731 44.0691L229.326 50.2887L226.053 54.1799L212.129 46.0546C211.986 45.9714 211.821 45.934 211.655 45.9473C211.489 45.9606 211.329 46.0239 211.197 46.129C209.838 47.2118 208.208 47.8919 206.497 48.0901C204.787 48.2884 203.065 47.9969 201.533 47.2492C200.001 46.5016 198.721 45.3286 197.841 43.8664C196.961 42.4042 196.517 40.7127 196.562 38.9881C196.607 37.2636 197.138 35.5769 198.093 34.1236C199.048 32.6703 200.389 31.5101 201.96 30.7776C203.53 30.0452 205.266 29.7704 206.966 29.9854C208.666 30.2003 210.26 30.8961 211.564 31.9919C211.73 32.1316 211.946 32.1982 212.164 32.1769C212.383 32.1557 212.585 32.0485 212.728 31.8787C212.871 31.709 212.942 31.4908 212.925 31.272C212.909 31.0532 212.806 30.8518 212.64 30.7121C211.285 29.573 209.66 28.7976 207.914 28.4561C206.168 28.1146 204.355 28.2178 202.64 28.7564C202.485 26.7361 202.863 24.6992 203.734 22.8491C204.605 20.9991 205.939 19.4005 207.604 18.2129C209.269 17.0253 211.206 16.2904 213.222 16.0814C215.238 15.8724 217.261 16.1966 219.092 17.0218C219.19 17.0679 219.297 17.0937 219.406 17.0978C219.515 17.1018 219.625 17.0841 219.728 17.0455C219.831 17.0069 219.926 16.9483 220.007 16.873C220.088 16.7977 220.154 16.7073 220.201 16.607C220.248 16.5068 220.274 16.3986 220.279 16.2888C220.284 16.179 220.267 16.0699 220.229 15.9676C220.192 15.8653 220.134 15.772 220.059 15.6931C219.985 15.6142 219.895 15.5513 219.796 15.5079C218.406 14.8805 216.911 14.5057 215.381 14.4007C215.754 13.3349 216.321 12.3442 217.052 11.4794C218.519 9.73613 220.566 8.5874 222.798 8.25558C225.029 7.92377 227.287 8.43247 229.133 9.6832C230.98 10.9339 232.283 12.8377 232.792 15.026C233.301 17.2142 232.978 19.5313 231.887 21.5285Z" fill="black"/>
<path opacity="0.4" d="M464.553 133.841C463.923 134.59 463.469 135.473 463.218 136.431C461.986 136.448 460.789 136.717 459.701 137.221C458.613 137.725 457.658 138.453 456.896 139.36C456.133 140.266 455.579 141.332 455.269 142.49C454.959 143.649 454.9 144.874 455.094 146.09C454.204 146.496 453.422 147.086 452.796 147.822C452.17 148.558 451.715 149.426 451.459 150.369C451.203 151.313 451.151 152.312 451.307 153.304C451.464 154.296 451.825 155.259 452.367 156.133C452.91 157.007 453.622 157.772 454.46 158.381C455.297 158.99 456.242 159.429 457.234 159.671C458.226 159.912 459.244 159.951 460.224 159.785C461.203 159.619 462.124 159.251 462.926 158.705L472.683 164.591L477.062 168.274C477.179 168.372 477.328 168.423 477.476 168.416C477.623 168.408 477.758 168.343 477.85 168.233L488.936 155.051C489.028 154.942 489.07 154.798 489.052 154.651C489.034 154.504 488.958 154.366 488.841 154.268L484.462 150.585L476.991 141.982C477.696 140.425 477.784 138.628 477.238 136.928C476.693 135.227 475.551 133.739 474.027 132.741C472.503 131.744 470.701 131.305 468.957 131.507C467.214 131.71 465.648 132.539 464.553 133.841V133.841ZM487.707 154.72L477.313 167.079L473.78 164.107L484.174 151.749L487.707 154.72ZM475.822 141.756C475.772 141.852 475.753 141.964 475.768 142.075C475.784 142.187 475.833 142.293 475.909 142.381L483.344 150.942L481.238 153.447L475.848 148.265L475.848 148.266C475.838 148.256 475.828 148.247 475.818 148.238C475.703 148.144 475.559 148.095 475.416 148.1C475.273 148.106 475.141 148.166 475.048 148.269C474.955 148.371 474.908 148.508 474.917 148.65C474.925 148.792 474.989 148.93 475.095 149.034L475.094 149.034L480.543 154.273L478.44 156.773L473.583 152.688C473.466 152.59 473.317 152.538 473.169 152.546C473.021 152.554 472.887 152.619 472.795 152.729C472.703 152.838 472.661 152.982 472.679 153.129C472.697 153.276 472.773 153.413 472.89 153.512L477.747 157.597L475.645 160.097L469.549 155.627L469.549 155.628C469.428 155.542 469.282 155.502 469.14 155.518C468.998 155.534 468.872 155.604 468.787 155.713C468.702 155.822 468.665 155.962 468.684 156.104C468.703 156.247 468.776 156.38 468.889 156.477C468.899 156.486 468.91 156.493 468.921 156.502L468.921 156.502L474.95 160.923L472.843 163.428L463.134 157.571C463.035 157.511 462.922 157.481 462.809 157.485C462.696 157.488 462.59 157.526 462.504 157.592C461.612 158.276 460.525 158.682 459.368 158.763C458.212 158.844 457.033 158.597 455.969 158.05C454.905 157.504 453.999 156.68 453.357 155.675C452.715 154.67 452.363 153.525 452.341 152.372C452.319 151.219 452.629 150.107 453.234 149.163C453.84 148.22 454.716 147.484 455.762 147.041C456.807 146.598 457.978 146.467 459.14 146.662C460.302 146.857 461.407 147.371 462.325 148.144C462.443 148.242 462.591 148.293 462.739 148.286C462.887 148.278 463.022 148.212 463.114 148.103C463.205 147.994 463.247 147.85 463.229 147.703C463.211 147.556 463.135 147.418 463.018 147.32C462.063 146.517 460.935 145.949 459.738 145.667C458.541 145.386 457.312 145.4 456.163 145.709C455.997 144.353 456.191 143.001 456.728 141.789C457.264 140.578 458.123 139.548 459.218 138.804C460.314 138.06 461.608 137.626 462.972 137.547C464.336 137.468 465.721 137.746 466.99 138.354C467.058 138.388 467.131 138.408 467.206 138.414C467.28 138.42 467.354 138.412 467.423 138.389C467.492 138.366 467.555 138.33 467.608 138.282C467.66 138.234 467.702 138.176 467.731 138.11C467.76 138.044 467.775 137.973 467.775 137.899C467.775 137.826 467.76 137.752 467.731 137.683C467.702 137.613 467.66 137.549 467.607 137.494C467.554 137.439 467.492 137.394 467.423 137.362C466.459 136.9 465.432 136.604 464.389 136.488C464.61 135.786 464.966 135.14 465.436 134.584C466.38 133.461 467.737 132.755 469.244 132.6C470.751 132.445 472.3 132.854 473.593 133.747C474.886 134.639 475.829 135.953 476.241 137.432C476.653 138.912 476.504 140.453 475.822 141.756V141.756Z" fill="black"/>
<path opacity="0.4" d="M409.03 35.1278C407.624 34.3406 406.085 33.8248 404.515 33.6133C403.983 31.8491 403.079 30.173 401.86 28.6901C400.642 27.2073 399.134 25.9496 397.432 24.9959C395.73 24.0421 393.87 23.4129 391.969 23.1477C390.068 22.8824 388.167 22.9869 386.385 23.4544C385.398 22.2402 384.173 21.2089 382.788 20.4253C381.403 19.6417 379.888 19.1229 378.338 18.9015C376.788 18.6801 375.236 18.761 373.782 19.1391C372.327 19.5171 371 20.1841 369.884 21.0981C368.769 22.012 367.89 23.1531 367.301 24.4494C366.713 25.7456 366.429 27.1691 366.467 28.6299C366.504 30.0908 366.863 31.5574 367.52 32.9374C368.177 34.3175 369.118 35.5809 370.285 36.6482L365.279 51.5599L361.438 58.4141C361.335 58.5974 361.318 58.8189 361.391 59.0298C361.463 59.2406 361.619 59.4237 361.824 59.5386L386.567 73.403C386.772 73.5179 387.009 73.5553 387.227 73.5069C387.445 73.4586 387.625 73.3284 387.727 73.1451L391.568 66.2909L401.673 54.2365C404.347 55.0065 407.135 54.8541 409.515 53.8079C411.895 52.7617 413.706 50.8933 414.607 48.5519C415.509 46.2105 415.44 43.5565 414.413 41.0859C413.387 38.6153 411.473 36.4973 409.03 35.1278ZM386.568 71.5873L363.372 58.5894L366.471 53.0596L389.667 66.0575L386.568 71.5873ZM401.539 52.5246C401.37 52.467 401.192 52.4574 401.028 52.4969C400.863 52.5364 400.72 52.6233 400.617 52.7461L390.561 64.7422L385.859 62.1076L391.581 53.571L391.58 53.5706C391.591 53.555 391.601 53.5396 391.611 53.523C391.707 53.344 391.724 53.13 391.656 52.9253C391.588 52.7206 391.442 52.5409 391.247 52.4233C391.052 52.3058 390.824 52.2595 390.609 52.2941C390.395 52.3286 390.21 52.4413 390.095 52.6089L390.094 52.6084L384.309 61.2388L379.617 58.6094L383.877 51.006C383.98 50.8226 383.997 50.6012 383.925 50.3903C383.852 50.1794 383.696 49.9964 383.491 49.8815C383.286 49.7666 383.049 49.7292 382.831 49.7776C382.613 49.8259 382.433 49.9561 382.331 50.1394L378.07 57.7429L373.378 55.1134L377.718 45.6737L377.718 45.6733C377.8 45.4871 377.8 45.271 377.717 45.07C377.635 44.869 377.476 44.6983 377.274 44.5935C377.072 44.4886 376.842 44.4575 376.632 44.5067C376.422 44.5559 376.248 44.6815 376.146 44.8576C376.137 44.8742 376.129 44.8912 376.122 44.9083L376.121 44.9079L371.827 54.2447L367.125 51.6101L372.107 36.7708C372.158 36.6188 372.157 36.4513 372.105 36.2904C372.053 36.1295 371.951 35.9826 371.814 35.869C370.401 34.6958 369.333 33.1988 368.734 31.5518C368.135 29.9047 368.029 28.1751 368.428 26.5637C368.828 24.9523 369.717 23.5251 370.993 22.4478C372.268 21.3706 373.877 20.6874 375.633 20.4775C377.389 20.2677 379.221 20.5398 380.914 21.2622C382.608 21.9847 384.095 23.1279 385.203 24.5592C386.31 25.9906 386.993 27.6512 387.171 29.3486C387.35 31.0459 387.017 32.7104 386.211 34.1487C386.108 34.332 386.091 34.5534 386.164 34.7643C386.236 34.9752 386.392 35.1582 386.597 35.2731C386.802 35.3881 387.04 35.4254 387.257 35.3771C387.475 35.3287 387.655 35.1985 387.758 35.0152C388.595 33.5195 389.001 31.8136 388.94 30.0523C388.879 28.2909 388.352 26.5298 387.407 24.9285C389.417 24.4799 391.566 24.5499 393.642 25.1314C395.718 25.7129 397.647 26.7856 399.238 28.2424C400.828 29.6992 402.023 31.4892 402.704 33.4337C403.385 35.3781 403.529 37.4091 403.12 39.3237C403.096 39.4268 403.095 39.5353 403.116 39.643C403.138 39.7506 403.181 39.8552 403.244 39.9506C403.307 40.0461 403.389 40.1305 403.484 40.1991C403.579 40.2676 403.686 40.3188 403.798 40.3498C403.911 40.3807 404.026 40.3908 404.139 40.3795C404.251 40.3681 404.357 40.3354 404.452 40.2835C404.547 40.2315 404.628 40.1612 404.69 40.0767C404.753 39.9922 404.796 39.8952 404.816 39.7912C405.128 38.3368 405.159 36.8174 404.909 35.3023C406.075 35.5114 407.21 35.9211 408.255 36.5103C410.362 37.6908 412.002 39.5279 412.858 41.6661C413.714 43.8042 413.725 46.0913 412.889 48.0844C412.053 50.0776 410.429 51.6351 408.333 52.4553C406.236 53.2756 403.815 53.3003 401.539 52.5246Z" fill="black"/>
<path opacity="0.4" d="M521.579 92.4267C520.453 92.3108 519.317 92.4254 518.242 92.7632C517.417 91.693 516.376 90.7995 515.183 90.1386C513.99 89.4778 512.671 89.0638 511.309 88.9227C509.947 88.7816 508.572 88.9164 507.268 89.3186C505.965 89.7209 504.763 90.3818 503.736 91.2602C502.766 90.7157 501.692 90.3726 500.582 90.2525C499.472 90.1324 498.349 90.2379 497.285 90.5624C496.221 90.8868 495.239 91.4231 494.4 92.1376C493.561 92.852 492.883 93.7291 492.41 94.7136C491.937 95.698 491.678 96.7685 491.65 97.8576C491.622 98.9466 491.826 100.031 492.248 101.041C492.67 102.052 493.302 102.968 494.103 103.73C494.905 104.493 495.858 105.086 496.904 105.472L497.725 117.455L497.105 123.439C497.088 123.599 497.137 123.76 497.242 123.885C497.346 124.01 497.497 124.09 497.661 124.107L517.458 126.158C517.622 126.175 517.786 126.128 517.914 126.027C518.042 125.926 518.123 125.779 518.14 125.619L518.76 119.635L522.019 108.074C523.96 107.786 525.724 106.817 526.981 105.349C528.237 103.881 528.9 102.014 528.846 100.096C528.792 98.1791 528.025 96.3431 526.687 94.9316C525.35 93.52 523.534 92.6296 521.579 92.4267ZM516.965 124.887L498.404 122.964L498.905 118.136L517.465 120.059L516.965 124.887ZM521.466 106.918C521.342 106.929 521.224 106.978 521.128 107.056C521.032 107.135 520.963 107.24 520.93 107.358L517.686 118.862L513.924 118.472L515.303 110.729L515.303 110.729C515.305 110.715 515.308 110.701 515.31 110.686C515.324 110.531 515.276 110.376 515.176 110.254C515.077 110.132 514.933 110.051 514.775 110.029C514.616 110.007 514.456 110.046 514.326 110.136C514.197 110.227 514.108 110.362 514.079 110.515L514.078 110.515L512.683 118.344L508.929 117.955L509.616 111.316C509.633 111.156 509.584 110.996 509.479 110.871C509.375 110.746 509.224 110.666 509.06 110.649C508.896 110.632 508.732 110.679 508.604 110.78C508.477 110.881 508.396 111.028 508.379 111.188L507.691 117.827L503.937 117.438L504.176 109.489L504.176 109.489C504.178 109.333 504.119 109.182 504.011 109.067C503.903 108.952 503.754 108.882 503.594 108.871C503.435 108.86 503.278 108.909 503.155 109.008C503.033 109.108 502.954 109.249 502.936 109.404C502.934 109.419 502.934 109.433 502.934 109.447L502.933 109.447L502.696 117.309L498.934 116.919L498.118 104.994C498.109 104.872 498.063 104.755 497.985 104.659C497.908 104.562 497.802 104.491 497.683 104.454C496.448 104.07 495.349 103.352 494.512 102.385C493.675 101.418 493.136 100.24 492.956 98.9887C492.776 97.7374 492.963 96.4637 493.495 95.3155C494.027 94.1673 494.883 93.1916 495.963 92.5016C497.043 91.8117 498.303 91.4359 499.597 91.4177C500.89 91.3995 502.164 91.7397 503.271 92.3989C504.378 93.0581 505.273 94.0092 505.85 95.1418C506.428 96.2744 506.666 97.5421 506.536 98.7978C506.52 98.9579 506.569 99.1181 506.673 99.2433C506.777 99.3685 506.928 99.4484 507.092 99.4654C507.256 99.4824 507.42 99.4351 507.548 99.334C507.676 99.2328 507.757 99.0861 507.774 98.926C507.908 97.6204 507.707 96.3009 507.188 95.0872C506.668 93.8736 505.847 92.804 504.799 91.9756C505.978 91.0404 507.389 90.4245 508.892 90.1895C510.394 89.9545 511.936 90.1086 513.362 90.6364C514.789 91.1642 516.05 92.0472 517.021 93.1973C517.992 94.3474 518.638 95.7243 518.894 97.1906C518.907 97.2701 518.936 97.3465 518.979 97.4152C519.022 97.4839 519.079 97.5436 519.146 97.5909C519.213 97.6382 519.288 97.6721 519.369 97.6907C519.449 97.7092 519.532 97.712 519.613 97.6989C519.694 97.6858 519.772 97.6571 519.842 97.6145C519.911 97.5718 519.971 97.516 520.019 97.4503C520.066 97.3847 520.099 97.3104 520.117 97.2319C520.134 97.1535 520.135 97.0723 520.12 96.9932C519.926 95.8791 519.532 94.8061 518.957 93.8233C519.769 93.6091 520.616 93.5448 521.454 93.6337C523.139 93.8084 524.701 94.587 525.838 95.8186C526.974 97.0502 527.605 98.6473 527.606 100.301C527.608 101.954 526.981 103.546 525.846 104.768C524.712 105.991 523.151 106.757 521.466 106.918Z" fill="black"/>
<g opacity="0.4" clip-path="url(#clip0)">
<path d="M354.289 83.4089L285.316 107.07C284.638 107.303 284.28 108.057 284.519 108.753L286.25 113.797C287.92 118.666 293.14 121.301 297.886 119.673L334.776 107.018C339.522 105.39 342.025 100.105 340.355 95.237L339.057 91.4534L342.906 90.1331C344.177 92.1723 346.571 93.2413 348.953 92.6652L356.478 90.8436C356.589 90.8169 356.698 90.7849 356.805 90.7482C357.693 90.4436 358.441 89.8065 358.889 88.962C359.391 88.0132 359.478 86.8797 359.125 85.8506C358.431 83.8276 356.261 82.7323 354.289 83.4089ZM337.896 96.0807C339.088 99.5577 337.301 103.333 333.91 104.496L297.021 117.151C293.631 118.314 289.902 116.431 288.709 112.954L287.411 109.17L336.598 92.2971L337.896 96.0807ZM356.592 87.6666C356.434 87.9662 356.17 88.178 355.838 88.2537L348.313 90.0753C347.261 90.3304 346.203 89.9888 345.484 89.2485L355.154 85.9313C355.77 85.7199 356.449 86.0624 356.665 86.6942C356.777 87.0209 356.752 87.3666 356.592 87.6666Z" fill="black"/>
<path d="M280.584 64.408C281.583 64.0654 282.391 63.6329 283.045 63.1643L282.973 67.0551C282.966 67.4518 283.164 67.8166 283.505 68.037C283.846 68.2586 284.288 68.306 284.693 68.1671L297.304 63.8406C297.709 63.7018 298.029 63.3931 298.162 63.0088C298.296 62.6258 298.227 62.2164 297.979 61.9075L295.534 58.8803C296.338 58.8487 297.242 58.6936 298.24 58.351C301.274 57.3105 303.637 53.5357 302.167 49.2512C300.639 44.7968 294.258 41.6271 283.86 45.1943C273.461 48.7614 270.37 55.1803 271.898 59.6347C273.368 63.9192 277.551 65.4485 280.584 64.408ZM284.653 47.5064C294.629 44.0842 298.822 47.7176 299.644 50.1165C300.624 52.9732 299.267 55.4145 297.447 56.0388C294.549 57.033 293.007 55.7517 292.957 55.7093C292.475 55.2676 291.69 55.2681 291.158 55.7103C290.626 56.1526 290.529 56.8849 290.936 57.3888L294.762 62.1285L285.649 65.2548L285.761 59.1639C285.773 58.5242 285.255 58.0182 284.573 57.9859C283.891 57.9526 283.265 58.4268 283.136 59.0604C283.119 59.1436 282.689 61.1016 279.791 62.0958C277.971 62.7201 275.401 61.6261 274.421 58.7694C273.598 56.3705 274.677 50.9287 284.653 47.5064Z" fill="black"/>
<path d="M313.859 71.9174L310.246 78.6681C308.959 81.0718 308.72 83.7628 309.572 86.2457C310.423 88.7287 312.264 90.706 314.756 91.8136C317.247 92.9211 320.09 93.0262 322.762 92.1097C325.434 91.1932 327.614 89.3649 328.901 86.9612L337.331 71.2143C340.652 65.0119 338.123 57.641 331.694 54.7831C325.266 51.9251 317.334 54.6476 314.014 60.8483C312.11 64.4025 312.065 68.4916 313.859 71.9174ZM316.487 71.2096C314.789 68.378 314.736 64.8913 316.345 61.8848C319.003 56.9228 325.346 54.7466 330.49 57.0324C335.633 59.3186 337.656 65.2163 335 70.1779L326.569 85.9248C325.603 87.7275 323.969 89.0984 321.965 89.7859C319.961 90.4734 317.829 90.3943 315.96 89.5643C314.091 88.7342 312.711 87.2505 312.072 85.388C311.433 83.5255 311.613 81.5081 312.578 79.7046L316.502 72.3732C316.704 71.9985 316.698 71.5616 316.487 71.2096Z" fill="black"/>
<path d="M326.431 67.5927C327.441 67.2461 328.256 66.5244 328.724 65.5622C329.193 64.5982 329.259 63.5089 328.91 62.4925C328.562 61.476 327.841 60.6567 326.881 60.1843C325.921 59.7119 326.881 60.1843 326.881 60.1843C324.959 59.2386 322.467 60.0937 321.53 62.0199C321.061 62.9838 320.995 64.0732 321.344 65.0896C321.692 66.106 322.413 66.9253 323.373 67.3978C324.335 67.8697 325.42 67.9393 326.431 67.5927ZM323.928 63.2001C324.083 62.8792 324.355 62.6388 324.693 62.5228C325.031 62.4068 325.391 62.4305 325.712 62.5882C326.032 62.7447 326.272 63.0178 326.389 63.3575C326.505 63.6971 326.483 64.059 326.327 64.3803C326.016 65.0225 325.184 65.3076 324.543 64.9921C324.223 64.8357 323.983 64.5625 323.866 64.2229C323.75 63.8832 323.771 63.5218 323.928 63.2001Z" fill="black"/>
<path d="M319.637 35.4585L318.858 33.1884C312.599 35.3354 309.254 42.1741 311.401 48.4329L313.671 47.6541C311.954 42.6473 314.63 37.1761 319.637 35.4585Z" fill="black"/>
<path d="M279.369 74.222L281.892 73.3568C280.639 69.7051 276.226 67.8998 272.053 69.3314L272.81 71.5385C275.593 70.584 278.534 71.7876 279.369 74.222Z" fill="black"/>
<path d="M303.999 70.0017L306.432 69.1673C305.281 65.8144 307.073 62.1508 310.426 61.0006L309.592 58.5683C304.898 60.1787 302.389 65.3074 303.999 70.0017Z" fill="black"/>
<path d="M321.696 32.2149L323.587 31.5659L324.236 33.4577L322.345 34.1067L321.696 32.2149Z" fill="black"/>
<path d="M331.975 86.8348L334.813 85.8613L335.462 87.7531L332.624 88.7266L331.975 86.8348Z" fill="black"/>
<path d="M283.686 100.434C285.226 101.124 286.983 101.191 288.634 100.625C290.284 100.058 291.629 98.9271 292.423 97.437C292.593 97.1169 292.732 96.7756 292.845 96.4044C294.004 95.8675 294.956 95.0242 295.637 93.9826L302.171 97.6523C302.478 97.8251 302.854 97.8639 303.206 97.7598C303.225 97.7546 303.243 97.7483 303.262 97.7419C303.589 97.6296 303.862 97.4009 304.019 97.1045L308.773 88.1799C308.94 87.8661 308.963 87.5064 308.837 87.1891C308.709 86.8706 308.445 86.6236 308.108 86.5072L300.932 84.0398C301.407 82.9079 301.547 81.7026 301.294 80.5393C301.546 80.2301 301.754 79.919 301.925 79.5989C303.563 76.5253 302.308 72.8669 299.128 71.4462C297.588 70.7567 295.831 70.6895 294.18 71.2557C292.915 71.6897 291.828 72.457 291.032 73.4631C289.787 73.1571 288.458 73.2188 287.191 73.6532C285.542 74.219 284.196 75.3508 283.403 76.8393C283.233 77.1578 283.094 77.4995 282.982 77.873C281.642 78.4923 280.554 79.5061 279.874 80.7845C279.193 82.0632 278.99 83.473 279.281 84.8203C279.028 85.13 278.82 85.441 278.651 85.7607C277.198 88.4858 278.021 91.6688 280.442 93.3474C279.562 96.1569 280.868 99.1742 283.686 100.434ZM302.363 94.853L296.579 91.6029C296.771 90.381 296.582 89.13 296.008 88.0269L296.033 87.9796C297.341 87.7151 298.535 87.0786 299.469 86.185L305.818 88.3689L302.363 94.853ZM282.636 91.6834C280.729 90.8298 279.977 88.6357 280.958 86.7913C281.113 86.5012 281.33 86.2178 281.643 85.9006C281.977 85.5602 282.094 85.0795 281.944 84.653C281.619 83.7219 281.703 82.715 282.181 81.8151C282.657 80.9238 283.463 80.2465 284.456 79.9058L284.485 79.896C284.941 79.7396 285.279 79.3619 285.366 78.9135C285.446 78.4927 285.557 78.1623 285.711 77.8722C286.664 76.0841 289.104 75.2471 290.953 76.074C291.565 76.3474 292.385 76.066 292.7 75.4747C293.652 73.6867 296.092 72.8496 297.942 73.6765C299.849 74.5301 300.602 76.7242 299.62 78.5686C299.465 78.8603 299.248 79.1421 298.938 79.4573C298.602 79.7981 298.485 80.2789 298.635 80.7069C298.961 81.6387 298.877 82.6456 298.398 83.5444C297.763 84.7353 296.537 85.5206 295.132 85.6469C294.668 85.6886 294.257 85.9575 294.046 86.3532L293.386 87.5899C293.174 87.9872 293.197 88.4523 293.446 88.8104C294.206 89.9066 294.28 91.2715 293.647 92.4631C293.171 93.3544 292.365 94.0317 291.372 94.3724C291.362 94.3758 291.351 94.378 291.343 94.3822C290.887 94.5385 290.549 94.9163 290.463 95.3659C290.382 95.7839 290.274 96.115 290.118 96.4055C289.135 98.2504 286.784 99.0569 284.876 98.2038C282.969 97.3502 282.216 95.1561 283.198 93.3117C283.524 92.6972 283.274 91.9673 282.636 91.6834Z" fill="black"/>
</g>
<g opacity="0.4" clip-path="url(#clip1)">
<path d="M151.301 120.88L85.7495 88.9404C85.1044 88.6261 84.3192 88.908 83.9968 89.5696L81.6607 94.3641C79.4064 98.9908 81.2422 104.542 85.7532 106.74L120.813 123.823C125.324 126.021 130.827 124.045 133.082 119.419L134.834 115.823L138.492 117.605C137.952 119.947 138.893 122.394 140.987 123.668L147.602 127.69C147.699 127.75 147.799 127.804 147.901 127.854C148.745 128.265 149.724 128.342 150.638 128.06C151.663 127.743 152.525 127.001 153.001 126.023C153.938 124.1 153.175 121.793 151.301 120.88ZM130.744 118.28C129.134 121.584 125.203 122.996 121.981 121.426L86.9212 104.343C83.6992 102.773 82.3879 98.8076 83.998 95.503L85.7501 91.9071L132.496 114.684L130.744 118.28ZM149.926 125.521C149.602 125.621 149.265 125.585 148.977 125.405L142.362 121.382C141.437 120.82 140.928 119.831 140.942 118.799L150.133 123.277C150.718 123.562 150.957 124.284 150.664 124.884C150.513 125.195 150.25 125.421 149.926 125.521Z" fill="black"/>
<path d="M112.518 55.3864C113.467 55.8489 114.345 56.1137 115.139 56.2436L112.341 58.9481C112.056 59.2237 111.939 59.6221 112.024 60.0187C112.11 60.4163 112.389 60.7619 112.774 60.9494L124.76 66.7896C125.145 66.9771 125.589 66.9842 125.955 66.8062C126.32 66.6292 126.56 66.2909 126.603 65.8968L127.008 62.0265C127.6 62.5717 128.349 63.1001 129.299 63.5627C132.181 64.9673 136.52 63.9623 138.504 59.8904C140.567 55.6569 138.286 48.9075 128.403 44.0922C118.521 39.277 111.8 41.6404 109.737 45.8739C107.753 49.9458 109.635 53.9818 112.518 55.3864ZM127.333 46.2897C136.814 50.9093 137.218 56.4424 136.107 58.7223C134.784 61.4373 132.099 62.208 130.369 61.3652C127.615 60.0231 127.428 58.0271 127.422 57.962C127.392 57.3083 126.836 56.7545 126.147 56.6921C125.458 56.6297 124.872 57.0798 124.805 57.7239L124.168 63.7821L115.507 59.562L119.887 55.3277C120.347 54.8829 120.338 54.1592 119.877 53.6548C119.418 53.1494 118.64 53.0438 118.101 53.4011C118.03 53.4484 116.343 54.531 113.589 53.1889C111.859 52.3462 110.811 49.7569 112.134 47.0419C113.245 44.762 117.851 41.6701 127.333 46.2897Z" fill="black"/>
<path d="M130.782 84.1975L123.457 86.4274C120.848 87.2212 118.779 88.9579 117.629 91.3176C116.479 93.6774 116.387 96.3775 117.37 98.9208C118.352 101.464 120.291 103.546 122.831 104.783C125.37 106.02 128.204 106.265 130.813 105.471L147.901 100.271C154.631 98.2229 158.045 91.2176 155.51 84.6549C152.975 78.0922 145.435 74.4199 138.706 76.4675C134.849 77.6404 131.93 80.5047 130.782 84.1975ZM133.142 85.5512C133.939 82.3471 136.363 79.8403 139.625 78.8475C145.011 77.2097 151.04 80.1473 153.069 85.3977C155.097 90.6475 152.366 96.2526 146.981 97.891L129.893 103.091C127.936 103.685 125.811 103.503 123.907 102.575C122.002 101.647 120.548 100.086 119.81 98.178C119.073 96.2704 119.143 94.2456 120.006 92.4755C120.868 90.7054 122.42 89.4037 124.376 88.8075L132.331 86.3858C132.739 86.2635 133.043 85.9499 133.142 85.5512Z" fill="black"/>
<path d="M142.738 90.0103C143.698 90.4782 144.785 90.5428 145.796 90.1917C146.808 89.8399 147.624 89.1152 148.095 88.1492C148.566 87.1832 148.634 86.0939 148.287 85.0816C147.941 84.0692 148.287 85.0816 148.287 85.0816C147.594 83.0551 145.225 81.9009 143.202 82.6037C142.189 82.9555 141.373 83.6802 140.903 84.6462C140.432 85.6122 140.364 86.7015 140.71 87.7138C141.058 88.7268 141.778 89.5424 142.738 90.0103ZM144.067 85.1328C144.403 85.015 144.765 85.0363 145.087 85.1929C145.408 85.3494 145.647 85.6207 145.762 85.9588C145.878 86.2956 145.856 86.6587 145.699 86.9815C145.541 87.3043 145.27 87.5447 144.932 87.6619C144.259 87.897 143.469 87.5121 143.237 86.836C143.121 86.4991 143.144 86.1361 143.301 85.8133C143.458 85.4905 143.728 85.2495 144.067 85.1328Z" fill="black"/>
<path d="M160.614 62.4563L161.665 60.2988C155.717 57.4005 148.52 59.8819 145.621 65.8302L147.779 66.8814C150.097 62.123 155.855 60.1378 160.614 62.4563Z" fill="black"/>
<path d="M104.729 61.4792L107.126 62.6472C108.817 59.1767 106.967 54.7828 103 52.8503L101.978 54.9479C104.623 56.2363 105.856 59.1655 104.729 61.4792Z" fill="black"/>
<path d="M125.151 75.8794L127.463 77.0057C129.016 73.8192 132.871 72.4898 136.058 74.0425L137.184 71.7308C132.723 69.557 127.325 71.418 125.151 75.8794Z" fill="black"/>
<path d="M164.362 61.6128L166.16 62.4889L165.284 64.2868L163.486 63.4108L164.362 61.6128Z" fill="black"/>
<path d="M133.079 107.552L135.776 108.866L134.9 110.664L132.203 109.35L133.079 107.552Z" fill="black"/>
<path d="M89.2798 83.0901C89.8836 84.6657 91.0807 85.954 92.6494 86.7183C94.218 87.4827 95.9692 87.6308 97.5833 87.1359C97.93 87.0296 98.269 86.8856 98.611 86.7025C99.8111 87.1408 101.081 87.2157 102.298 86.9588L104.335 94.1705C104.431 94.5102 104.669 94.8025 104.992 94.9775C105.009 94.9872 105.027 94.9958 105.044 95.0044C105.355 95.156 105.71 95.1862 106.031 95.0878L115.698 92.1237C116.038 92.0195 116.308 91.781 116.443 91.4668C116.577 91.1514 116.565 90.7899 116.408 90.4697L113.068 83.6559C114.204 83.1894 115.154 82.4348 115.796 81.4326C116.193 81.3912 116.56 81.3178 116.906 81.2115C120.237 80.1914 121.931 76.7145 120.682 73.4632C120.078 71.8877 118.881 70.5993 117.312 69.835C116.11 69.2492 114.798 69.025 113.524 69.1759C112.858 68.0799 111.874 67.1851 110.67 66.5987C109.103 65.835 107.35 65.6862 105.738 66.1806C105.393 66.2864 105.053 66.4298 104.71 66.6151C103.324 66.108 101.837 66.0576 100.453 66.4829C99.0679 66.9076 97.929 67.7629 97.1839 68.9225C96.7862 68.9633 96.4192 69.0367 96.0737 69.1436C93.121 70.0479 91.4563 72.8829 91.9855 75.7807C89.379 77.1494 88.1735 80.208 89.2798 83.0901ZM106.447 92.3241L104.645 85.9382C105.644 85.2088 106.394 84.1895 106.766 83.0026L106.817 82.9869C107.93 83.7232 109.225 84.1155 110.517 84.1417L113.472 90.1713L106.447 92.3241ZM94.7147 76.1519C93.9669 74.2011 94.9829 72.1158 96.9801 71.5025C97.2944 71.4062 97.6486 71.3591 98.0937 71.355C98.5711 71.3503 98.9932 71.0922 99.1878 70.684C99.615 69.7952 100.385 69.1414 101.36 68.8418C102.326 68.5465 103.375 68.636 104.319 69.0959L104.346 69.1091C104.779 69.3202 105.285 69.2917 105.663 69.0351C106.018 68.7941 106.329 68.6381 106.643 68.5417C108.58 67.9478 110.899 69.0777 111.625 70.9691C111.865 71.5945 112.645 71.9744 113.285 71.778C115.222 71.1842 117.541 72.314 118.267 74.2054C119.015 76.1562 117.999 78.2415 116.002 78.8548C115.686 78.9517 115.333 78.9982 114.891 79.0024C114.413 79.0065 113.99 79.2646 113.794 79.6733C113.368 80.5638 112.597 81.2175 111.624 81.516C110.333 81.9109 108.91 81.6014 107.826 80.6988C107.468 80.4012 106.987 80.3008 106.558 80.4323L105.218 80.8423C104.787 80.9742 104.475 81.3198 104.398 81.7488C104.162 83.0617 103.252 84.081 101.962 84.4774C100.995 84.7728 99.9464 84.6833 99.0024 84.2234C98.993 84.2188 98.9842 84.2131 98.9754 84.2102C98.5422 83.9991 98.0357 84.0276 97.6574 84.2853C97.3054 84.5246 96.9946 84.6824 96.6792 84.7781C94.6808 85.3909 92.4464 84.3022 91.6973 82.3508C90.9494 80.3999 91.9654 78.3147 93.9627 77.7014C94.6276 77.4966 94.9656 76.8029 94.7147 76.1519Z" fill="black"/>
</g>
<g opacity="0.4" clip-path="url(#clip2)">
<path d="M473.491 112.386L434.845 50.5508C434.465 49.9422 433.65 49.7649 433.026 50.155L428.503 52.9816C424.138 55.7093 422.752 61.3897 425.411 65.645L446.081 98.7172C448.74 102.972 454.454 104.215 458.818 101.487L462.21 99.3675L464.367 102.818C462.668 104.518 462.168 107.091 463.268 109.281L466.744 116.199C466.795 116.301 466.851 116.401 466.911 116.497C467.408 117.293 468.198 117.877 469.122 118.123C470.16 118.397 471.284 118.225 472.206 117.648C474.02 116.515 474.596 114.154 473.491 112.386ZM457.44 99.2827C454.323 101.231 450.242 100.343 448.342 97.3039L427.672 64.2317C425.773 61.1924 426.764 57.1347 429.881 55.1864L433.273 53.0665L460.832 97.1627L457.44 99.2827ZM469.865 115.592C469.537 115.506 469.271 115.296 469.122 114.991L465.646 108.072C465.16 107.106 465.253 105.997 465.812 105.13L471.23 113.799C471.575 114.351 471.395 115.09 470.828 115.444C470.535 115.627 470.193 115.68 469.865 115.592Z" fill="black"/>
<path d="M475.331 36.2931C475.891 37.1886 476.495 37.8786 477.099 38.4097L473.293 39.2194C472.905 39.3016 472.595 39.5774 472.457 39.9591C472.318 40.3413 472.372 40.7826 472.599 41.1455L479.665 52.4522C479.892 52.8152 480.265 53.0569 480.67 53.0997C481.073 53.1432 481.456 52.9839 481.701 52.6721L484.097 49.6056C484.309 50.3816 484.665 51.227 485.224 52.1225C486.924 54.8418 491.135 56.2899 494.976 53.8893C498.97 51.3935 500.615 44.4615 494.788 35.1391C488.962 25.8167 482.01 24.2573 478.017 26.7531C474.176 29.1538 473.632 33.5738 475.331 36.2931ZM492.715 36.4346C498.305 45.3783 495.714 50.2838 493.563 51.628C491.002 53.2286 488.317 52.4586 487.297 50.827C485.673 48.2287 486.573 46.437 486.603 46.3789C486.924 45.8088 486.746 45.0443 486.195 44.6261C485.644 44.2079 484.909 44.2791 484.51 44.7894L480.758 49.5885L475.652 41.4182L481.61 40.1502C482.236 40.0169 482.612 39.3984 482.489 38.7267C482.367 38.0545 481.764 37.5526 481.118 37.5698C481.033 37.5725 479.028 37.5959 477.404 34.9976C476.385 33.366 476.869 30.6151 479.43 29.0145C481.581 27.6704 487.126 27.491 492.715 36.4346Z" fill="black"/>
<path d="M475.542 70.4047L468.149 68.4119C465.516 67.7019 462.841 68.0773 460.615 69.4685C458.389 70.8597 456.879 73.1001 456.364 75.7773C455.848 78.4546 456.389 81.248 457.886 83.6432C459.383 86.0385 461.657 87.7486 464.289 88.4585L481.535 93.1095C488.327 94.9413 494.936 90.8114 496.266 83.9029C497.596 76.9945 493.15 69.8834 486.359 68.052C482.466 67.0013 478.473 67.8823 475.542 70.4047ZM476.825 72.8039C479.2 70.5096 482.584 69.6694 485.877 70.5574C491.311 72.0239 494.865 77.7111 493.802 83.2386C492.738 88.765 487.451 92.0695 482.017 90.6041L464.772 85.9532C462.797 85.4197 461.092 84.1379 459.969 82.3412C458.846 80.5445 458.441 78.4503 458.827 76.4417C459.213 74.4331 460.346 72.7537 462.016 71.7102C463.686 70.6666 465.692 70.3856 467.666 70.9173L475.695 73.0816C476.106 73.1943 476.53 73.0897 476.825 72.8039Z" fill="black"/>
<path d="M482.597 81.6723C483.163 82.5781 484.051 83.2092 485.094 83.4474C486.139 83.686 487.215 83.5041 488.126 82.9346C489.037 82.365 489.673 81.4775 489.916 80.4355C490.159 79.3935 489.916 80.4355 489.916 80.4355C490.402 78.3497 489.006 76.1151 486.917 75.6384C485.873 75.3998 484.796 75.5817 483.885 76.1512C482.974 76.7207 482.339 77.6083 482.096 78.6503C481.853 79.6934 482.031 80.7665 482.597 81.6723ZM486.31 78.2415C486.658 78.3199 486.953 78.5299 487.143 78.833C487.332 79.1361 487.391 79.4926 487.31 79.8406C487.23 80.1878 487.018 80.4837 486.713 80.674C486.409 80.8643 486.051 80.9242 485.703 80.8447C485.007 80.6868 484.541 79.9415 484.704 79.2456C484.784 78.8984 484.995 78.6025 485.3 78.4122C485.604 78.2219 485.961 78.1609 486.31 78.2415Z" fill="black"/>
<path d="M512.363 67.7873L514.398 66.5153C510.891 60.9042 503.473 59.1923 497.862 62.6991L499.134 64.7343C503.623 61.929 509.557 63.2986 512.363 67.7873Z" fill="black"/>
<path d="M465.497 37.3294L466.91 39.5908C470.184 37.5447 470.945 32.8382 468.606 29.0968L466.628 30.3334C468.187 32.8277 467.679 35.9654 465.497 37.3294Z" fill="black"/>
<path d="M475.178 60.3668L476.541 62.5474C479.547 60.6687 483.521 61.5859 485.399 64.5918L487.58 63.229C484.95 59.0204 479.387 57.7366 475.178 60.3668Z" fill="black"/>
<path d="M515.988 69.0593L517.048 70.7553L515.352 71.8153L514.292 70.1193L515.988 69.0593Z" fill="black"/>
<path d="M465.108 91.4246L466.698 93.9687L465.002 95.0286L463.412 92.4846L465.108 91.4246Z" fill="black"/>
<path d="M440.94 47.462C440.617 49.1181 440.949 50.8451 441.873 52.3248C442.798 53.8046 444.204 54.8586 445.835 55.2948C446.186 55.3885 446.55 55.4461 446.937 55.4722C447.722 56.4801 448.759 57.2167 449.927 57.6446L447.83 64.8388C447.731 65.1777 447.778 65.5519 447.96 65.8715C447.969 65.8888 447.979 65.9054 447.99 65.922C448.173 66.2155 448.457 66.429 448.782 66.5158L458.55 69.1282C458.894 69.22 459.249 69.1611 459.53 68.9658C459.811 68.7699 459.992 68.4566 460.029 68.1022L460.81 60.5541C462.02 60.7605 463.226 60.6245 464.302 60.1153C464.66 60.2904 465.01 60.4227 465.36 60.5164C468.725 61.4171 472.004 59.3673 472.669 55.9484C472.993 54.2924 472.661 52.5654 471.736 51.0856C471.027 49.9515 470.034 49.0659 468.874 48.5187C468.89 47.2362 468.53 45.9553 467.82 44.8201C466.896 43.3415 465.489 42.2863 463.86 41.8506C463.511 41.7573 463.147 41.6986 462.757 41.6739C461.851 40.509 460.618 39.6782 459.219 39.305C457.819 38.9307 456.4 39.0521 455.153 39.6402C454.794 39.464 454.444 39.3316 454.095 39.2391C451.112 38.4404 448.197 39.9615 447.11 42.6991C444.174 42.4776 441.53 44.4318 440.94 47.462ZM450.601 64.3934L452.458 58.0235C453.692 57.9347 454.868 57.4678 455.812 56.6587L455.864 56.6725C456.418 57.8869 457.308 58.9062 458.389 59.6134L457.698 66.2925L450.601 64.3934ZM449.227 44.4608C449.627 42.4102 451.594 41.1808 453.613 41.7197C453.93 41.8047 454.255 41.9525 454.635 42.1851C455.042 42.4342 455.537 42.4392 455.918 42.1962C456.752 41.6691 457.752 41.5233 458.737 41.7857C459.712 42.0476 460.554 42.6796 461.111 43.5701L461.127 43.5955C461.382 44.0042 461.827 44.2486 462.283 44.2313C462.711 44.2148 463.058 44.2476 463.376 44.3325C465.333 44.8559 466.7 47.0434 466.313 49.032C466.185 49.6896 466.644 50.425 467.291 50.5981C469.249 51.1215 470.616 53.309 470.229 55.2975C469.828 57.3481 467.861 58.5775 465.843 58.0386C465.523 57.9532 465.2 57.8058 464.823 57.5749C464.415 57.3246 463.92 57.3196 463.537 57.5622C462.703 58.091 461.703 58.2368 460.719 57.9738C459.416 57.6242 458.374 56.6075 457.933 55.2673C457.787 54.8253 457.432 54.485 456.999 54.3692L455.645 54.0062C455.21 53.8899 454.763 54.0173 454.47 54.3403C453.574 55.3285 452.261 55.7099 450.957 55.3621C449.981 55.1002 449.139 54.4682 448.583 53.5777C448.577 53.5688 448.573 53.5593 448.567 53.5522C448.312 53.1435 447.867 52.8992 447.41 52.9171C446.984 52.9334 446.637 52.9024 446.319 52.8163C444.3 52.2763 442.982 50.1686 443.382 48.1169C443.782 46.0663 445.749 44.8369 447.768 45.3758C448.44 45.5547 449.094 45.1458 449.227 44.4608Z" fill="black"/>
</g>
<g opacity="0.4" clip-path="url(#clip3)">
<path d="M424.271 172.506L359.507 139C358.869 138.67 358.078 138.933 357.739 139.587L355.289 144.324C352.924 148.895 354.626 154.489 359.083 156.795L393.722 174.715C398.178 177.021 403.728 175.178 406.093 170.607L407.931 167.054L411.545 168.924C410.949 171.252 411.831 173.721 413.893 175.045L420.41 179.225C420.505 179.287 420.605 179.344 420.705 179.396C421.539 179.827 422.516 179.928 423.436 179.668C424.469 179.375 425.348 178.655 425.848 177.688C426.831 175.789 426.123 173.464 424.271 172.506ZM403.783 169.412C402.094 172.677 398.13 173.994 394.947 172.347L360.308 154.426C357.125 152.78 355.909 148.783 357.598 145.518L359.436 141.966L405.621 165.86L403.783 169.412ZM422.785 177.113C422.459 177.205 422.123 177.161 421.84 176.973L415.323 172.793C414.412 172.209 413.927 171.208 413.966 170.177L423.046 174.874C423.624 175.173 423.845 175.9 423.539 176.494C423.38 176.8 423.112 177.021 422.785 177.113Z" fill="black"/>
<path d="M387.074 106.099C388.012 106.584 388.883 106.87 389.674 107.019L386.812 109.655C386.52 109.924 386.393 110.32 386.469 110.718C386.545 111.118 386.816 111.47 387.196 111.667L399.038 117.793C399.418 117.99 399.863 118.008 400.232 117.838C400.602 117.67 400.85 117.338 400.902 116.945L401.4 113.086C401.979 113.645 402.715 114.191 403.653 114.676C406.501 116.15 410.863 115.249 412.944 111.226C415.108 107.044 412.99 100.241 403.226 95.1899C393.462 90.1385 386.686 92.3398 384.522 96.5224C382.441 100.545 384.226 104.626 387.074 106.099ZM402.103 97.3611C411.47 102.207 411.741 107.748 410.576 110.001C409.188 112.683 406.485 113.389 404.776 112.505C402.055 111.097 401.916 109.097 401.912 109.032C401.898 108.378 401.355 107.811 400.668 107.732C399.98 107.653 399.384 108.089 399.301 108.731L398.519 114.772L389.962 110.345L394.442 106.217C394.913 105.784 394.921 105.06 394.473 104.545C394.025 104.029 393.25 103.904 392.703 104.249C392.631 104.294 390.918 105.336 388.197 103.928C386.488 103.044 385.503 100.43 386.891 97.7477C388.056 95.4952 392.735 92.5149 402.103 97.3611Z" fill="black"/>
<path d="M404.64 135.341L397.263 137.394C394.637 138.125 392.526 139.811 391.32 142.143C390.114 144.474 389.957 147.171 390.878 149.737C391.798 152.304 393.687 154.431 396.196 155.729C398.705 157.027 401.533 157.34 404.159 156.609L421.368 151.821C428.145 149.935 431.726 143.014 429.35 136.392C426.973 129.771 419.524 125.918 412.748 127.804C408.863 128.883 405.876 131.677 404.64 135.341ZM406.967 136.751C407.84 133.567 410.324 131.119 413.609 130.205C419.033 128.697 424.989 131.779 426.891 137.076C428.793 142.373 425.928 147.911 420.506 149.42L403.298 154.207C401.327 154.755 399.207 154.521 397.325 153.547C395.443 152.574 394.027 150.978 393.336 149.054C392.644 147.129 392.763 145.106 393.668 143.357C394.573 141.609 396.155 140.345 398.125 139.795L406.136 137.566C406.547 137.453 406.859 137.147 406.967 136.751Z" fill="black"/>
<path d="M416.453 141.439C417.402 141.93 418.487 142.021 419.506 141.694C420.526 141.367 421.359 140.662 421.853 139.708C422.347 138.753 422.441 137.666 422.119 136.645C421.797 135.625 422.119 136.645 422.119 136.645C421.475 134.603 419.134 133.392 417.095 134.046C416.074 134.373 415.241 135.078 414.747 136.033C414.253 136.987 414.159 138.074 414.481 139.095C414.804 140.116 415.504 140.949 416.453 141.439ZM417.899 136.595C418.238 136.486 418.599 136.516 418.917 136.68C419.234 136.844 419.466 137.121 419.574 137.462C419.682 137.801 419.65 138.164 419.485 138.483C419.32 138.802 419.043 139.035 418.703 139.144C418.024 139.363 417.243 138.959 417.028 138.278C416.92 137.938 416.952 137.576 417.117 137.257C417.282 136.938 417.557 136.704 417.899 136.595Z" fill="black"/>
<path d="M434.986 114.323L436.089 112.191C430.212 109.151 422.957 111.459 419.916 117.336L422.048 118.438C424.48 113.737 430.284 111.891 434.986 114.323Z" fill="black"/>
<path d="M379.141 112.003L381.509 113.228C383.283 109.799 381.539 105.362 377.62 103.335L376.548 105.407C379.16 106.759 380.323 109.717 379.141 112.003Z" fill="black"/>
<path d="M399.211 126.89L401.495 128.071C403.124 124.923 407.01 123.687 410.158 125.316L411.34 123.032C406.932 120.751 401.491 122.482 399.211 126.89Z" fill="black"/>
<path d="M438.753 113.57L440.53 114.489L439.611 116.265L437.834 115.346L438.753 113.57Z" fill="black"/>
<path d="M406.375 158.744L409.04 160.122L408.121 161.899L405.456 160.52L406.375 158.744Z" fill="black"/>
<path d="M363.176 133.236C363.742 134.826 364.908 136.143 366.458 136.944C368.008 137.746 369.755 137.936 371.38 137.48C371.729 137.382 372.072 137.247 372.418 137.072C373.607 137.539 374.875 137.644 376.098 137.417L377.961 144.675C378.048 145.017 378.28 145.315 378.598 145.498C378.615 145.508 378.632 145.517 378.65 145.526C378.957 145.685 379.311 145.724 379.634 145.633L389.37 142.902C389.712 142.806 389.988 142.574 390.13 142.263C390.272 141.951 390.268 141.59 390.12 141.266L386.944 134.374C388.091 133.935 389.059 133.203 389.725 132.216C390.122 132.185 390.491 132.12 390.84 132.022C394.194 131.082 395.971 127.647 394.801 124.367C394.235 122.777 393.069 121.461 391.519 120.659C390.331 120.044 389.025 119.788 387.749 119.909C387.109 118.797 386.146 117.879 384.957 117.264C383.408 116.462 381.66 116.272 380.036 116.727C379.689 116.825 379.345 116.96 378.998 117.137C377.624 116.597 376.14 116.51 374.746 116.902C373.351 117.294 372.192 118.121 371.419 119.263C371.02 119.294 370.652 119.358 370.304 119.457C367.33 120.29 365.598 123.084 366.057 125.994C363.418 127.3 362.14 130.328 363.176 133.236ZM380.117 142.88L378.469 136.453C379.485 135.748 380.259 134.747 380.659 133.569L380.711 133.555C381.806 134.317 383.091 134.741 384.382 134.798L387.192 140.897L380.117 142.88ZM368.777 126.431C368.076 124.462 369.142 122.402 371.153 121.837C371.47 121.748 371.825 121.71 372.27 121.716C372.747 121.723 373.175 121.475 373.38 121.072C373.828 120.194 374.614 119.558 375.595 119.282C376.568 119.01 377.615 119.125 378.547 119.608L378.574 119.621C379.002 119.843 379.509 119.826 379.893 119.579C380.253 119.347 380.568 119.198 380.885 119.109C382.835 118.562 385.126 119.747 385.807 121.656C386.032 122.287 386.802 122.685 387.447 122.504C389.398 121.957 391.689 123.143 392.369 125.051C393.07 127.019 392.004 129.079 389.993 129.644C389.674 129.734 389.321 129.772 388.879 129.765C388.4 129.758 387.972 130.006 387.766 130.41C387.318 131.29 386.532 131.925 385.552 132.2C384.252 132.563 382.837 132.22 381.775 131.291C381.424 130.985 380.945 130.873 380.514 130.994L379.164 131.372C378.73 131.494 378.41 131.832 378.323 132.259C378.056 133.565 377.121 134.563 375.821 134.928C374.848 135.2 373.802 135.085 372.869 134.603C372.86 134.598 372.851 134.592 372.842 134.589C372.414 134.368 371.907 134.384 371.523 134.632C371.165 134.863 370.851 135.013 370.533 135.102C368.521 135.666 366.313 134.524 365.611 132.555C364.91 130.587 365.976 128.527 367.988 127.962C368.657 127.773 369.012 127.087 368.777 126.431Z" fill="black"/>
</g>
<g opacity="0.4" clip-path="url(#clip4)">
<path d="M283.913 167.297L212.384 153.128C211.68 152.989 210.993 153.461 210.85 154.183L209.814 159.415C208.814 164.464 212.004 169.364 216.927 170.339L255.183 177.917C260.106 178.892 264.923 175.579 265.923 170.53L266.701 166.606L270.692 167.397C270.768 169.799 272.301 171.925 274.65 172.623L282.073 174.826C282.182 174.858 282.293 174.886 282.404 174.908C283.324 175.09 284.291 174.915 285.103 174.41C286.013 173.841 286.657 172.904 286.869 171.837C287.284 169.739 285.958 167.703 283.913 167.297ZM263.373 170.025C262.659 173.631 259.217 175.998 255.701 175.301L217.445 167.723C213.929 167.026 211.65 163.526 212.364 159.92L213.141 155.996L264.15 166.101L263.373 170.025ZM283.767 172.136C283.479 172.315 283.145 172.366 282.82 172.265L275.398 170.062C274.36 169.755 273.616 168.928 273.366 167.927L283.395 169.913C284.033 170.04 284.448 170.676 284.318 171.332C284.251 171.67 284.055 171.957 283.767 172.136Z" fill="black"/>
<path d="M229.712 113.858C230.748 114.063 231.665 114.095 232.466 114.018L230.45 117.347C230.244 117.686 230.232 118.101 230.416 118.463C230.6 118.826 230.958 119.088 231.378 119.172L244.457 121.762C244.877 121.846 245.309 121.739 245.617 121.474C245.925 121.21 246.071 120.821 246.011 120.429L245.417 116.584C246.128 116.96 246.987 117.28 248.023 117.485C251.169 118.108 255.108 116.03 255.988 111.587C256.903 106.967 252.977 101.023 242.193 98.8864C231.409 96.7502 225.513 100.749 224.598 105.369C223.718 109.812 226.567 113.235 229.712 113.858ZM241.718 101.284C252.063 103.334 253.865 108.581 253.372 111.069C252.785 114.031 250.386 115.461 248.498 115.087C245.493 114.492 244.803 112.609 244.781 112.548C244.585 111.923 243.906 111.53 243.224 111.645C242.542 111.76 242.09 112.345 242.189 112.985L243.118 119.005L233.667 117.133L236.823 111.922C237.154 111.375 236.961 110.677 236.387 110.307C235.814 109.935 235.035 110.032 234.605 110.514C234.549 110.578 233.193 112.055 230.187 111.46C228.3 111.086 226.627 108.849 227.214 105.887C227.706 103.399 231.372 99.2348 241.718 101.284Z" fill="black"/>
<path d="M254.719 137.06L248.204 141.083C245.885 142.516 244.326 144.723 243.816 147.298C243.306 149.873 243.905 152.507 245.504 154.716C247.102 156.925 249.509 158.443 252.279 158.992C255.05 159.541 257.853 159.054 260.173 157.622L275.37 148.237C281.356 144.54 282.87 136.896 278.746 131.197C274.621 125.497 266.394 123.869 260.41 127.565C256.979 129.682 254.887 133.196 254.719 137.06ZM257.346 137.767C257.3 134.465 259.004 131.423 261.906 129.631C266.696 126.675 273.274 127.978 276.575 132.537C279.874 137.097 278.663 143.213 273.875 146.17L258.677 155.555C256.937 156.629 254.835 156.994 252.757 156.582C250.678 156.171 248.875 155.032 247.675 153.375C246.475 151.719 246.027 149.743 246.409 147.812C246.792 145.88 247.961 144.226 249.7 143.15L256.775 138.78C257.138 138.558 257.352 138.177 257.346 137.767Z" fill="black"/>
<path d="M267.762 139.632C268.81 139.839 269.877 139.625 270.765 139.027C271.654 138.429 272.259 137.52 272.467 136.466C272.676 135.412 272.464 134.341 271.871 133.451C271.278 132.56 271.871 133.451 271.871 133.451C270.684 131.668 268.099 131.156 266.322 132.352C265.433 132.95 264.828 133.859 264.62 134.913C264.411 135.967 264.623 137.037 265.216 137.928C265.81 138.819 266.714 139.424 267.762 139.632ZM267.803 134.576C268.099 134.377 268.454 134.305 268.805 134.375C269.155 134.444 269.455 134.645 269.653 134.943C269.851 135.239 269.922 135.596 269.852 135.948C269.783 136.3 269.581 136.602 269.285 136.801C268.693 137.2 267.831 137.03 267.435 136.435C267.237 136.139 267.166 135.782 267.236 135.43C267.306 135.078 267.506 134.776 267.803 134.576Z" fill="black"/>
<path d="M278.021 108.43L278.488 106.076C271.997 104.79 265.67 109.025 264.384 115.516L266.739 115.982C267.767 110.79 272.829 107.402 278.021 108.43Z" fill="black"/>
<path d="M223.734 121.735L226.35 122.253C227.1 118.466 224.191 114.689 219.863 113.832L219.409 116.121C222.295 116.693 224.234 119.21 223.734 121.735Z" fill="black"/>
<path d="M247.153 130.452L249.676 130.952C250.365 127.475 253.754 125.206 257.231 125.895L257.731 123.372C252.863 122.408 248.118 125.584 247.153 130.452Z" fill="black"/>
<path d="M281.43 106.659L283.392 107.048L283.003 109.01L281.042 108.621L281.43 106.659Z" fill="black"/>
<path d="M262.895 159.056L265.838 159.639L265.449 161.601L262.507 161.018L262.895 159.056Z" fill="black"/>
<path d="M214.306 146.571C215.292 147.94 216.778 148.881 218.489 149.22C220.201 149.559 221.932 149.256 223.367 148.366C223.675 148.175 223.966 147.949 224.25 147.685C225.522 147.802 226.769 147.551 227.881 146.992L231.689 153.446C231.868 153.75 232.173 153.972 232.53 154.059C232.549 154.064 232.568 154.068 232.587 154.072C232.927 154.139 233.277 154.078 233.563 153.901L242.155 148.57C242.457 148.382 242.657 148.083 242.707 147.745C242.757 147.405 242.652 147.059 242.42 146.789L237.453 141.052C238.431 140.312 239.158 139.34 239.524 138.207C239.896 138.066 240.232 137.901 240.541 137.71C243.501 135.875 244.252 132.081 242.215 129.255C241.23 127.886 239.744 126.945 238.032 126.606C236.72 126.346 235.395 126.464 234.202 126.935C233.278 126.045 232.098 125.431 230.784 125.171C229.074 124.832 227.342 125.135 225.909 126.024C225.602 126.214 225.31 126.44 225.025 126.706C223.556 126.569 222.106 126.9 220.876 127.664C219.645 128.428 218.761 129.545 218.337 130.856C217.962 130.997 217.626 131.162 217.319 131.353C214.695 132.98 213.808 136.146 215.059 138.813C212.887 140.801 212.502 144.066 214.306 146.571ZM233.261 151.122L229.89 145.407C230.67 144.447 231.135 143.27 231.192 142.028L231.237 142C232.501 142.428 233.854 142.477 235.11 142.173L239.504 147.249L233.261 151.122ZM217.792 138.476C216.572 136.781 217.023 134.505 218.797 133.403C219.077 133.23 219.407 133.094 219.837 132.976C220.297 132.85 220.639 132.493 220.723 132.049C220.91 131.08 221.488 130.252 222.354 129.714C223.213 129.182 224.25 129.001 225.28 129.205L225.309 129.21C225.782 129.304 226.264 129.147 226.564 128.803C226.845 128.48 227.107 128.249 227.386 128.076C229.108 127.008 231.638 127.509 232.822 129.153C233.214 129.697 234.065 129.865 234.634 129.512C236.355 128.444 238.886 128.945 240.07 130.589C241.291 132.284 240.84 134.56 239.065 135.662C238.784 135.836 238.455 135.971 238.029 136.088C237.567 136.214 237.225 136.571 237.139 137.016C236.954 137.986 236.375 138.815 235.51 139.352C234.363 140.063 232.908 140.126 231.629 139.53C231.208 139.333 230.717 139.359 230.336 139.595L229.144 140.334C228.762 140.571 228.548 140.985 228.583 141.419C228.69 142.749 228.069 143.966 226.923 144.679C226.064 145.211 225.026 145.392 223.996 145.188C223.986 145.186 223.976 145.182 223.967 145.182C223.494 145.088 223.012 145.245 222.712 145.59C222.432 145.912 222.172 146.143 221.891 146.316C220.115 147.418 217.677 146.936 216.455 145.24C215.235 143.544 215.685 141.269 217.46 140.166C218.051 139.799 218.201 139.042 217.792 138.476Z" fill="black"/>
</g>
<g opacity="0.4" clip-path="url(#clip5)">
<path d="M713.504 67.2805L664.723 121.479C664.243 122.013 664.298 122.845 664.845 123.338L668.809 126.906C672.634 130.349 678.477 130.115 681.834 126.385L707.924 97.3974C711.281 93.6677 710.9 87.8328 707.074 84.3898L704.101 81.7139L706.823 78.6895C708.925 79.8538 711.537 79.6247 713.339 77.9635L719.03 72.7143C719.114 72.6374 719.194 72.5559 719.27 72.4719C719.898 71.7742 720.242 70.8541 720.223 69.8981C720.201 68.825 719.726 67.7922 718.917 67.0644C717.327 65.6337 714.899 65.7306 713.504 67.2805ZM705.335 86.3223C708.067 88.7815 708.34 92.9495 705.942 95.6135L679.852 124.602C677.454 127.266 673.281 127.432 670.548 124.973L667.575 122.297L702.362 83.6464L705.335 86.3223ZM717.586 69.8823C717.593 70.2211 717.466 70.5346 717.213 70.7617L711.521 76.0109C710.726 76.7451 709.635 76.961 708.647 76.6632L715.486 69.0645C715.922 68.5804 716.681 68.5501 717.178 68.9969C717.434 69.2279 717.58 69.5426 717.586 69.8823Z" fill="black"/>
<path d="M639.854 86.4947C640.561 85.7098 641.057 84.9387 641.401 84.2114L643.229 87.6468C643.415 87.9973 643.766 88.2196 644.171 88.2467C644.576 88.2746 644.986 88.1013 645.272 87.7831L654.192 77.8727C654.478 77.5546 654.608 77.1294 654.537 76.7288C654.468 76.3291 654.209 76.0046 653.842 75.8554L650.233 74.398C650.921 73.9798 651.635 73.405 652.342 72.62C654.487 70.2366 654.718 65.7892 651.351 62.759C647.851 59.6086 640.734 59.9393 633.38 68.1104C626.025 76.2816 626.443 83.3937 629.944 86.5441C633.31 89.5742 637.709 88.8781 639.854 86.4947ZM635.197 69.7457C642.252 61.9065 647.682 63.0445 649.567 64.7411C651.812 66.7615 651.812 69.5547 650.525 70.9848C648.475 73.2622 646.505 72.8917 646.441 72.8788C645.804 72.7274 645.118 73.1094 644.868 73.7544C644.618 74.3994 644.89 75.0865 645.49 75.3292L651.138 77.612L644.692 84.7733L641.83 79.3954C641.53 78.8306 640.831 78.6399 640.22 78.9432C639.607 79.2457 639.291 79.964 639.486 80.5807C639.512 80.6615 640.087 82.582 638.037 84.8594C636.75 86.2895 633.972 86.5823 631.728 84.562C629.843 82.8654 628.141 77.5848 635.197 69.7457Z" fill="black"/>
<path d="M672.585 76.8859L672.708 84.5418C672.752 87.2679 673.85 89.7361 675.801 91.4922C677.752 93.2482 680.322 94.0817 683.038 93.8389C685.753 93.596 688.29 92.306 690.179 90.2066C692.069 88.1071 693.085 85.4498 693.042 82.7237L692.757 64.8643C692.645 57.8299 686.853 52.6169 679.845 53.2434C672.838 53.87 667.228 60.1043 667.341 67.1369C667.404 71.1684 669.352 74.7639 672.585 76.8859ZM674.537 74.9905C671.677 73.341 669.936 70.3195 669.882 66.9097C669.793 61.2815 674.28 56.2967 679.886 55.7945C685.491 55.2933 690.126 59.4644 690.216 65.0916L690.501 82.9509C690.532 84.996 689.77 86.9883 688.353 88.5631C686.936 90.138 685.034 91.1047 682.997 91.2878C680.96 91.4708 679.033 90.8445 677.57 89.5273C676.106 88.2101 675.283 86.3595 675.249 84.3146L675.116 76.0002C675.111 75.5742 674.893 75.1953 674.537 74.9905Z" fill="black"/>
<path d="M681.47 66.9968C682.185 66.2028 682.547 65.1758 682.488 64.1074C682.429 63.0372 681.958 62.053 681.159 61.3341C680.36 60.6153 679.332 60.2496 678.263 60.3033C677.195 60.357 678.263 60.3033 678.263 60.3033C676.124 60.4108 674.361 62.3694 674.479 64.508C674.538 65.5782 675.009 66.5624 675.808 67.2813C676.607 68.0002 677.635 68.3658 678.704 68.3121C679.773 68.2575 680.756 67.7907 681.47 66.9968ZM677.149 64.3738C677.128 64.0181 677.249 63.6761 677.488 63.4104C677.727 63.1448 678.053 62.9902 678.41 62.9723C678.766 62.9534 679.109 63.0753 679.376 63.3156C679.643 63.5558 679.799 63.8829 679.818 64.2397C679.859 64.9522 679.271 65.6054 678.557 65.6413C678.201 65.6601 677.858 65.5382 677.591 65.298C677.325 65.0578 677.167 64.7316 677.149 64.3738Z" fill="black"/>
<path d="M659.916 42.2145L658.132 40.6089C653.705 45.5271 654.105 53.1296 659.023 57.5561L660.629 55.7722C656.695 52.2312 656.375 46.1488 659.916 42.2145Z" fill="black"/>
<path d="M643.562 95.662L645.346 93.6799C642.477 91.0973 637.743 91.664 634.791 94.9434L636.526 96.5043C638.493 94.3181 641.649 93.9403 643.562 95.662Z" fill="black"/>
<path d="M663.037 80.0036L664.757 78.0923C662.122 75.721 661.908 71.6482 664.279 69.0135L662.368 67.2933C659.048 70.9821 659.348 76.6836 663.037 80.0036Z" fill="black"/>
<path d="M660.139 38.3791L661.477 36.8925L662.963 38.2305L661.625 39.717L660.139 38.3791Z" fill="black"/>
<path d="M695.667 81.1191L697.674 78.8892L699.161 80.2272L697.154 82.4571L695.667 81.1191Z" fill="black"/>
<path d="M660.074 116.473C661.755 116.327 663.323 115.531 664.491 114.234C665.658 112.937 666.283 111.295 666.253 109.607C666.246 109.245 666.201 108.879 666.12 108.5C666.872 107.467 667.294 106.267 667.383 105.026L674.877 105.058C675.23 105.059 675.576 104.911 675.834 104.649C675.848 104.635 675.861 104.62 675.874 104.606C676.106 104.349 676.232 104.016 676.226 103.681L676.044 93.5705C676.037 93.2151 675.883 92.8896 675.618 92.6739C675.352 92.4573 675.001 92.3699 674.65 92.4318L667.179 93.7629C667.044 92.543 666.58 91.4214 665.794 90.5276C665.864 90.1351 665.895 89.762 665.888 89.3994C665.826 85.9171 662.951 83.3297 659.482 83.6335C657.801 83.7793 656.232 84.5746 655.065 85.8716C654.17 86.8657 653.593 88.0647 653.387 89.3306C652.149 89.6685 651.018 90.3684 650.122 91.3634C648.955 92.6595 648.329 94.3028 648.36 95.989C648.366 96.3498 648.41 96.7163 648.494 97.0973C647.624 98.2895 647.166 99.7044 647.193 101.152C647.219 102.601 647.727 103.931 648.636 104.967C648.565 105.361 648.535 105.734 648.542 106.096C648.597 109.183 650.863 111.565 653.794 111.856C654.391 114.739 656.998 116.741 660.074 116.473ZM673.685 102.518L667.05 102.489C666.624 101.327 665.851 100.326 664.813 99.6408L664.812 99.5872C665.826 98.7204 666.561 97.5838 666.942 96.3491L673.553 95.1718L673.685 102.518ZM654.904 109.335C652.822 109.516 651.098 107.964 651.06 105.875C651.054 105.546 651.106 105.193 651.225 104.764C651.352 104.304 651.22 103.827 650.882 103.527C650.145 102.871 649.729 101.95 649.71 100.931C649.693 99.9213 650.068 98.9376 650.77 98.1571L650.791 98.1348C651.113 97.7765 651.225 97.2819 651.083 96.848C650.949 96.441 650.885 96.0987 650.879 95.77C650.842 93.7444 652.568 91.8271 654.586 91.6509C655.254 91.5926 655.834 90.948 655.822 90.2782C655.785 88.2526 657.511 86.3353 659.529 86.1591C661.61 85.9783 663.335 87.53 663.373 89.619C663.379 89.9494 663.327 90.3011 663.209 90.7273C663.081 91.1885 663.212 91.6654 663.551 91.9668C664.289 92.6224 664.705 93.5433 664.724 94.5614C664.747 95.911 664.057 97.1931 662.891 97.9864C662.506 98.2481 662.277 98.6832 662.285 99.1315L662.309 100.533C662.317 100.983 662.563 101.378 662.954 101.571C664.151 102.159 664.88 103.316 664.905 104.665C664.923 105.676 664.547 106.659 663.845 107.44C663.838 107.447 663.83 107.454 663.825 107.462C663.502 107.82 663.39 108.315 663.533 108.75C663.666 109.154 663.732 109.496 663.737 109.826C663.775 111.916 662.112 113.763 660.03 113.945C657.948 114.126 656.224 112.574 656.186 110.485C656.172 109.789 655.599 109.273 654.904 109.335Z" fill="black"/>
</g>
<g opacity="0.4" clip-path="url(#clip6)">
<path d="M93.5041 120.281L44.7234 174.479C44.2434 175.013 44.2977 175.845 44.8448 176.338L48.809 179.906C52.6344 183.349 58.4771 183.115 61.834 179.385L87.9241 150.397C91.281 146.668 90.8999 140.833 87.0745 137.39L84.1013 134.714L86.8234 131.689C88.9255 132.854 91.5372 132.625 93.3391 130.964L99.0304 125.714C99.114 125.637 99.1945 125.556 99.2701 125.472C99.898 124.774 100.242 123.854 100.223 122.898C100.201 121.825 99.7256 120.792 98.9169 120.064C97.3273 118.634 94.8991 118.731 93.5041 120.281V120.281ZM85.3351 139.322C88.0674 141.781 88.3397 145.95 85.942 148.614L59.8519 177.602C57.4542 180.266 53.2806 180.432 50.5483 177.973L47.5752 175.297L82.362 136.646L85.3351 139.322ZM97.5861 122.882C97.5933 123.221 97.4655 123.535 97.2126 123.762L91.5213 129.011C90.726 129.745 89.6348 129.961 88.6471 129.663L95.4862 122.064C95.9219 121.58 96.6811 121.55 97.1776 121.997C97.4343 122.228 97.5798 122.543 97.5861 122.882V122.882Z" fill="black"/>
<path d="M19.8543 139.495C20.5607 138.71 21.0573 137.939 21.4012 137.211L23.2291 140.647C23.4152 140.997 23.7659 141.22 24.1707 141.247C24.5764 141.275 24.9857 141.101 25.272 140.783L34.1917 130.873C34.4781 130.555 34.6075 130.129 34.5372 129.729C34.4678 129.329 34.2089 129.005 33.8418 128.855L30.2335 127.398C30.9207 126.98 31.6354 126.405 32.3418 125.62C34.487 123.237 34.7177 118.789 31.351 115.759C27.8507 112.609 20.7339 112.939 13.3797 121.11C6.02537 129.282 6.4434 136.394 9.94368 139.544C13.3104 142.574 17.7091 141.878 19.8543 139.495V139.495ZM15.1966 122.746C22.2521 114.907 27.682 116.044 29.567 117.741C31.8118 119.761 31.812 122.555 30.5249 123.985C28.4752 126.262 26.5049 125.892 26.4408 125.879C25.8042 125.727 25.1185 126.109 24.8684 126.754C24.6184 127.399 24.8896 128.087 25.4901 128.329L31.1377 130.612L24.6923 137.773L21.8303 132.395C21.5297 131.831 20.8314 131.64 20.2197 131.943C19.6071 132.246 19.2911 132.964 19.4859 133.581C19.5119 133.661 20.0871 135.582 18.0374 137.859C16.7502 139.289 13.9724 139.582 11.7276 137.562C9.84257 135.865 8.1411 130.585 15.1966 122.746V122.746Z" fill="black"/>
<path d="M52.5851 129.886L52.7082 137.542C52.7517 140.268 53.8502 142.736 55.8013 144.492C57.7524 146.248 60.3223 147.082 63.0379 146.839C65.7535 146.596 68.2895 145.306 70.1791 143.207C72.0686 141.107 73.0854 138.45 73.0419 135.724L72.7569 117.864C72.6447 110.83 66.8526 105.617 59.8452 106.243C52.8379 106.87 47.2284 113.104 47.3407 120.137C47.4041 124.168 49.3521 127.764 52.5851 129.886V129.886ZM54.5373 127.99C51.6772 126.341 49.9363 123.32 49.8819 119.91C49.793 114.282 54.2795 109.297 59.8859 108.794C65.4914 108.293 70.1258 112.464 70.2156 118.092L70.5006 135.951C70.5324 137.996 69.7705 139.988 68.3531 141.563C66.9357 143.138 65.0343 144.105 62.9972 144.288C60.9601 144.471 59.0333 143.845 57.5698 142.527C56.1062 141.21 55.283 139.36 55.2494 137.315L55.1159 129C55.1109 128.574 54.8934 128.195 54.5373 127.99V127.99Z" fill="black"/>
<path d="M61.4704 119.997C62.1849 119.203 62.5469 118.176 62.4881 117.107C62.4293 116.037 61.9577 115.053 61.159 114.334C60.3603 113.615 59.3321 113.25 58.2634 113.303C57.1948 113.357 58.2634 113.303 58.2634 113.303C56.1243 113.411 54.3615 115.369 54.4791 117.508C54.5379 118.578 55.0095 119.562 55.8082 120.281C56.6069 121 57.6352 121.366 58.7038 121.312C59.7733 121.257 60.7558 120.791 61.4704 119.997V119.997ZM57.1487 117.374C57.1282 117.018 57.2486 116.676 57.4877 116.41C57.7267 116.145 58.0533 115.99 58.4102 115.972C58.766 115.953 59.1088 116.075 59.3757 116.316C59.6426 116.556 59.7988 116.883 59.8184 117.24C59.8585 117.952 59.2706 118.605 58.5569 118.641C58.2011 118.66 57.8583 118.538 57.5914 118.298C57.3245 118.058 57.1674 117.732 57.1487 117.374Z" fill="black"/>
<path d="M39.9156 95.2145L38.1317 93.6089C33.7052 98.5271 34.1052 106.13 39.0234 110.556L40.6289 108.772C36.6946 105.231 36.3746 99.1488 39.9156 95.2145Z" fill="black"/>
<path d="M23.5621 148.662L25.3461 146.68C22.4766 144.097 17.7428 144.664 14.7913 147.943L16.5256 149.504C18.4933 147.318 21.6492 146.94 23.5621 148.662Z" fill="black"/>
<path d="M43.0367 133.004L44.7569 131.092C42.1222 128.721 41.9079 124.648 44.2793 122.014L42.368 120.293C39.0479 123.982 39.3479 129.684 43.0367 133.004Z" fill="black"/>
<path d="M40.1387 91.3791L41.4766 89.8925L42.9632 91.2305L41.6252 92.717L40.1387 91.3791Z" fill="black"/>
<path d="M75.6675 134.119L77.6744 131.889L79.161 133.227L77.154 135.457L75.6675 134.119Z" fill="black"/>
<path d="M40.0738 169.473C41.7548 169.327 43.3233 168.531 44.4907 167.234C45.658 165.937 46.2834 164.295 46.2529 162.607C46.2464 162.244 46.2015 161.879 46.1197 161.5C46.8721 160.467 47.2942 159.267 47.3832 158.026L54.8768 158.058C55.2298 158.059 55.5765 157.911 55.8338 157.649C55.8478 157.635 55.8609 157.62 55.874 157.606C56.1056 157.349 56.2324 157.016 56.2263 156.681L56.0437 146.571C56.0373 146.215 55.8826 145.89 55.6175 145.674C55.3516 145.457 55.0006 145.37 54.6497 145.432L47.1789 146.763C47.0437 145.543 46.5805 144.421 45.7943 143.528C45.8638 143.135 45.8945 142.762 45.888 142.399C45.826 138.917 42.9512 136.33 39.4816 136.633C37.8006 136.779 36.232 137.575 35.0647 138.872C34.17 139.866 33.5927 141.065 33.3865 142.331C32.1493 142.668 31.0175 143.368 30.1219 144.363C28.9555 145.659 28.3292 147.303 28.3596 148.989C28.3661 149.35 28.4102 149.716 28.4937 150.097C27.624 151.29 27.1656 152.704 27.1926 154.152C27.2188 155.601 27.7267 156.931 28.6358 157.967C28.5654 158.361 28.5347 158.734 28.5421 159.096C28.597 162.183 30.8629 164.565 33.7942 164.856C34.3909 167.739 36.9984 169.741 40.0738 169.473V169.473ZM53.6848 155.518L47.0495 155.489C46.6239 154.327 45.8509 153.326 44.8127 152.641L44.8117 152.587C45.8264 151.72 46.5608 150.584 46.9422 149.349L53.553 148.172L53.6848 155.518ZM34.9038 162.335C32.8223 162.516 31.0982 160.964 31.0596 158.875C31.0537 158.546 31.1061 158.193 31.2249 157.764C31.3521 157.304 31.2205 156.827 30.8817 156.527C30.1453 155.871 29.7293 154.95 29.71 153.931C29.6927 152.921 30.068 151.938 30.7705 151.157L30.7906 151.135C31.113 150.777 31.2253 150.282 31.0828 149.848C30.9489 149.441 30.8848 149.099 30.8789 148.77C30.8423 146.744 32.5679 144.827 34.5862 144.651C35.2536 144.593 35.8338 143.948 35.8217 143.278C35.7851 141.253 37.5107 139.335 39.529 139.159C41.6104 138.978 43.3346 140.53 43.3732 142.619C43.3792 142.949 43.3267 143.301 43.2087 143.727C43.0807 144.188 43.2123 144.665 43.5511 144.967C44.2893 145.622 44.7052 146.543 44.7236 147.561C44.7471 148.911 44.0572 150.193 42.8906 150.986C42.5058 151.248 42.2766 151.683 42.2847 152.132L42.3091 153.533C42.3173 153.983 42.5633 154.378 42.9544 154.571C44.1514 155.159 44.8799 156.316 44.9052 157.665C44.9226 158.676 44.5473 159.659 43.8448 160.44C43.8378 160.447 43.8299 160.454 43.8247 160.462C43.5023 160.82 43.39 161.315 43.5333 161.75C43.6663 162.154 43.7322 162.496 43.7372 162.826C43.775 164.916 42.1122 166.763 40.0299 166.945C37.9485 167.126 36.2243 165.574 36.1857 163.485C36.1723 162.789 35.5988 162.273 34.9038 162.335V162.335Z" fill="black"/>
</g>
<g opacity="0.4" clip-path="url(#clip7)">
<path d="M613.24 142.164L540.337 140.669C539.619 140.655 539.025 141.24 539.01 141.976L538.9 147.308C538.795 152.453 542.79 156.723 547.807 156.826L586.799 157.625C591.816 157.728 595.983 153.626 596.088 148.481L596.17 144.482L600.239 144.565C600.731 146.917 602.612 148.744 605.047 149.022L612.739 149.898C612.852 149.911 612.966 149.919 613.079 149.921C614.018 149.941 614.939 149.599 615.65 148.961C616.448 148.242 616.919 147.207 616.941 146.12C616.985 143.981 615.325 142.207 613.24 142.164ZM593.489 148.427C593.414 152.103 590.437 155.033 586.854 154.959L547.862 154.16C544.278 154.086 541.425 151.036 541.5 147.361L541.582 143.362L593.571 144.428L593.489 148.427ZM613.939 146.954C613.687 147.181 613.366 147.289 613.029 147.246L605.336 146.37C604.261 146.248 603.384 145.563 602.964 144.621L613.185 144.83C613.836 144.844 614.355 145.399 614.342 146.066C614.335 146.412 614.192 146.727 613.939 146.954Z" fill="black"/>
<path d="M550.561 98.9812C551.616 99.0029 552.524 98.8748 553.3 98.6597L551.894 102.289C551.751 102.658 551.812 103.069 552.056 103.393C552.3 103.719 552.698 103.915 553.126 103.924L566.457 104.197C566.885 104.206 567.291 104.026 567.548 103.711C567.806 103.397 567.882 102.989 567.755 102.614L566.5 98.9304C567.265 99.1771 568.167 99.3423 569.223 99.364C572.429 99.4297 575.946 96.6975 576.039 92.1689C576.135 87.4606 571.234 82.2905 560.243 82.0651C549.252 81.8397 544.142 86.8045 544.046 91.5128C543.953 96.0414 547.355 98.9155 550.561 98.9812ZM560.193 84.509C570.737 84.7253 573.425 89.5786 573.373 92.1142C573.311 95.1337 571.197 96.9595 569.273 96.92C566.21 96.8572 565.203 95.1239 565.171 95.067C564.869 94.4862 564.132 94.2168 563.48 94.4492C562.829 94.6815 562.486 95.3359 562.695 95.9489L564.658 101.715L555.025 101.518L557.225 95.8368C557.456 95.24 557.144 94.587 556.515 94.3222C555.885 94.0563 555.135 94.2866 554.796 94.8371C554.752 94.9095 553.674 96.6001 550.611 96.5373C548.687 96.4979 546.65 94.5869 546.712 91.5674C546.764 89.0319 549.648 84.2928 560.193 84.509Z" fill="black"/>
<path d="M579.226 117.473L573.512 122.57C571.477 124.385 570.327 126.83 570.273 129.454C570.219 132.078 571.268 134.568 573.227 136.465C575.186 138.361 577.819 139.438 580.643 139.495C583.467 139.553 586.143 138.586 588.178 136.771L601.508 124.883C606.759 120.2 606.919 112.409 601.865 107.515C596.81 102.621 588.426 102.451 583.176 107.132C580.167 109.815 578.719 113.639 579.226 117.473ZM581.936 117.712C581.315 114.469 582.464 111.177 585.009 108.907C589.211 105.161 595.916 105.299 599.96 109.214C604.003 113.128 603.876 119.362 599.675 123.108L586.345 134.997C584.818 136.357 582.812 137.083 580.694 137.039C578.575 136.996 576.601 136.189 575.131 134.767C573.661 133.344 572.876 131.477 572.916 129.508C572.956 127.54 573.819 125.707 575.345 124.345L581.55 118.81C581.869 118.528 582.014 118.115 581.936 117.712Z" fill="black"/>
<path d="M592.517 117.734C593.585 117.756 594.599 117.359 595.369 116.616C596.141 115.872 596.578 114.872 596.6 113.798C596.622 112.723 596.226 111.706 595.487 110.932C594.748 110.159 595.487 110.932 595.487 110.932C594.008 109.384 591.373 109.33 589.831 110.816C589.06 111.56 588.623 112.561 588.601 113.635C588.579 114.709 588.974 115.726 589.714 116.5C590.454 117.274 591.449 117.712 592.517 117.734ZM591.678 112.749C591.934 112.501 592.271 112.369 592.629 112.376C592.986 112.383 593.316 112.529 593.563 112.788C593.81 113.045 593.942 113.384 593.934 113.743C593.927 114.102 593.781 114.434 593.524 114.682C593.011 115.178 592.133 115.16 591.639 114.643C591.392 114.386 591.26 114.047 591.268 113.688C591.275 113.329 591.419 112.997 591.678 112.749Z" fill="black"/>
<path d="M597.186 85.2232L597.235 82.8237C590.619 82.688 585.127 87.9597 584.991 94.5751L587.391 94.6243C587.499 89.3323 591.893 85.1147 597.186 85.2232Z" fill="black"/>
<path d="M546.046 107.779L548.712 107.834C548.791 103.974 545.268 100.762 540.857 100.672L540.809 103.004C543.75 103.065 546.099 105.206 546.046 107.779Z" fill="black"/>
<path d="M570.625 112.284L573.196 112.337C573.269 108.793 576.211 105.969 579.755 106.042L579.808 103.471C574.846 103.369 570.727 107.322 570.625 112.284Z" fill="black"/>
<path d="M600.234 82.8852L602.234 82.9262L602.193 84.9258L600.193 84.8848L600.234 82.8852Z" fill="black"/>
<path d="M591.108 137.71L594.108 137.771L594.067 139.771L591.067 139.709L591.108 137.71Z" fill="black"/>
<path d="M541.087 133.878C542.296 135.055 543.924 135.722 545.668 135.758C547.413 135.794 549.065 135.193 550.322 134.067C550.592 133.825 550.84 133.552 551.073 133.243C552.347 133.137 553.53 132.672 554.528 131.928L559.402 137.621C559.631 137.889 559.97 138.054 560.337 138.078C560.356 138.079 560.376 138.08 560.396 138.08C560.742 138.087 561.076 137.966 561.326 137.742L568.859 130.996C569.123 130.759 569.269 130.429 569.259 130.087C569.249 129.744 569.085 129.422 568.809 129.196L562.919 124.412C563.754 123.513 564.3 122.429 564.463 121.25C564.805 121.046 565.107 120.825 565.378 120.583C567.973 118.26 568.052 114.393 565.554 111.966C564.345 110.789 562.718 110.122 560.974 110.086C559.636 110.059 558.352 110.405 557.259 111.077C556.194 110.361 554.925 109.962 553.587 109.934C551.843 109.899 550.19 110.499 548.934 111.624C548.665 111.865 548.416 112.138 548.183 112.45C546.712 112.571 545.341 113.149 544.263 114.115C543.184 115.082 542.509 116.336 542.319 117.701C541.975 117.905 541.673 118.126 541.404 118.368C539.103 120.427 538.781 123.699 540.477 126.108C538.685 128.443 538.874 131.726 541.087 133.878ZM560.545 135.058L556.23 130.017C556.831 128.936 557.084 127.697 556.924 126.463L556.964 126.427C558.283 126.629 559.623 126.442 560.807 125.923L566.019 130.157L560.545 135.058ZM543.111 125.3C541.613 123.842 541.661 121.523 543.217 120.129C543.461 119.909 543.763 119.718 544.166 119.528C544.597 119.323 544.872 118.912 544.877 118.46C544.892 117.474 545.317 116.557 546.076 115.876C546.829 115.203 547.819 114.844 548.869 114.866L548.899 114.866C549.381 114.876 549.828 114.638 550.064 114.246C550.284 113.879 550.501 113.607 550.746 113.387C552.255 112.036 554.834 112.089 556.287 113.501C556.767 113.968 557.634 113.986 558.133 113.539C559.642 112.187 562.221 112.24 563.674 113.653C565.171 115.11 565.124 117.429 563.568 118.823C563.322 119.044 563.021 119.234 562.621 119.423C562.189 119.628 561.914 120.039 561.907 120.493C561.893 121.48 561.468 122.396 560.71 123.076C559.704 123.976 558.282 124.292 556.92 123.927C556.47 123.807 555.991 123.918 555.657 124.217L554.612 125.151C554.277 125.452 554.138 125.896 554.249 126.318C554.585 127.609 554.186 128.916 553.181 129.817C552.428 130.491 551.438 130.849 550.389 130.828C550.378 130.828 550.368 130.826 550.359 130.827C549.877 130.817 549.429 131.056 549.194 131.448C548.974 131.813 548.759 132.087 548.512 132.306C546.955 133.701 544.47 133.65 542.972 132.192C541.474 130.735 541.522 128.416 543.078 127.022C543.596 126.557 543.611 125.785 543.111 125.3Z" fill="black"/>
</g>
<defs>
<clipPath id="clip0">
<rect width="78" height="75" fill="white" transform="translate(264.942 51.6839) rotate(-18.9343)"/>
</clipPath>
<clipPath id="clip1">
<rect width="78" height="75" fill="white" transform="translate(110.424 35.3319) rotate(25.9773)"/>
</clipPath>
<clipPath id="clip2">
<rect width="78" height="75" fill="white" transform="translate(484.188 18.179) rotate(57.9953)"/>
</clipPath>
<clipPath id="clip3">
<rect width="78" height="75" fill="white" transform="translate(385.462 86) rotate(27.3547)"/>
</clipPath>
<clipPath id="clip4">
<rect width="78" height="75" fill="white" transform="translate(222.574 95) rotate(11.2049)"/>
</clipPath>
<clipPath id="clip5">
<rect width="78" height="75" fill="white" transform="translate(620 82.9761) rotate(-48.0118)"/>
</clipPath>
<clipPath id="clip6">
<rect width="78" height="75" fill="white" transform="translate(0 135.976) rotate(-48.0118)"/>
</clipPath>
<clipPath id="clip7">
<rect width="78" height="75" fill="white" transform="translate(540.247 81.655) rotate(1.17482)"/>
</clipPath>
</defs>
</svg>
